<?xml version="1.0" encoding="UTF-8" standalone="no"?>
<!-- Created with Inkscape (http://www.inkscape.org/) -->

<svg
   version="1.1"
   id="svg1"
   width="767"
   height="803"
   viewBox="0 0 767 803"
   sodipodi:docname="brand-logo.svg"
   inkscape:version="1.4.3 (0d15f75, 2025-12-25)"
   xmlns:inkscape="http://www.inkscape.org/namespaces/inkscape"
   xmlns:sodipodi="http://sodipodi.sourceforge.net/DTD/sodipodi-0.dtd"
   xmlns="http://www.w3.org/2000/svg"
   xmlns:svg="http://www.w3.org/2000/svg">
  <defs
     id="defs1" />
  <sodipodi:namedview
     id="namedview1"
     pagecolor="#ffffff"
     bordercolor="#000000"
     borderopacity="0.25"
     inkscape:showpageshadow="2"
     inkscape:pageopacity="0.0"
     inkscape:pagecheckerboard="0"
     inkscape:deskcolor="#d1d1d1"
     showgrid="false"
     inkscape:zoom="0.74937468"
     inkscape:cx="95.412885"
     inkscape:cy="382.31876"
     inkscape:window-width="1920"
     inkscape:window-height="1111"
     inkscape:window-x="-9"
     inkscape:window-y="-9"
     inkscape:window-maximized="1"
     inkscape:current-layer="g1" />
  <g
     inkscape:groupmode="layer"
     inkscape:label="Image"
     id="g1"
     sodipodi:insensitive="true">
    <g
       id="g101253"
       transform="matrix(1.1896695,0,0,1.2494421,879.7897,-180.10257)"
       sodipodi:insensitive="true">
      <path
         style="fill:#b49a65"
         d="m -439.9086,779.99004 c -40.51009,-2.57884 -79.23581,-13.00176 -116.68893,-31.40652 -74.38259,-36.55218 -133.24896,-102.38006 -159.63786,-178.51654 -7.10915,-20.51112 -11.60084,-38.58139 -15.53547,-62.5 -2.64094,-16.0543 -2.65809,-73.38189 -0.0263,-88 9.10936,-50.59777 19.60343,-79.3683 43.45364,-119.13239 9.56949,-15.95468 26.44713,-38.5305 39.20927,-52.44699 9.70781,-10.58591 33.77478,-31.4829 47.53675,-41.27546 27.03322,-19.23594 63.62792,-37.04776 93.5,-45.50947 33.81713,-9.5792 49.54215,-11.61754 89.5,-11.60134 44.19521,0.0179 61.09575,2.481 102.5,14.93839 47.80827,14.38419 102.45386,50.35847 136.75302,90.02726 42.87265,49.58446 67.54868,103.65999 76.89081,168.5 2.24164,15.55835 2.587502,64.02818 0.56371,79 -3.27615,24.23664 -10.95617,54.78071 -18.80439,74.78663 -9.89768,25.2302 -29.88348,61.00533 -44.04167,78.8358 -15.84569,19.95567 -37.76691,42.34494 -54.86148,56.03287 -26.61232,21.30895 -62.65699,40.9607 -94.75953,51.66342 -25.56006,8.5215 -58.72993,14.85632 -87.24047,16.66126 -17.47659,1.10641 -20.09788,1.10252 -38.31107,-0.0569 z m 68.31107,-10.90252 c 25.3475,-3.80268 48.07181,-10.95879 78.5,-24.72046 23.72947,-10.73206 43.09128,-22.6376 64,-39.3535 42.02889,-33.60087 73.31852,-74.50589 94.04595,-122.94658 13.16699,-30.77169 19.87781,-56.81775 23.03862,-89.41763 1.89188,-19.51239 0.66729,-56.66058 -2.50806,-76.08237 -12.54036,-76.70226 -51.75241,-144.60758 -111.24436,-192.64703 -19.17356,-15.48255 -32.05016,-23.75163 -55.33215,-35.53311 -37.58185,-19.0177 -75.25265,-29.42798 -117.6357,-32.50851 -25.44062,-1.84909 -61.67381,1.31308 -88.2011,7.69755 -55.05666,13.2508 -103.30901,40.00707 -146.05393,80.98792 -15.54947,14.90776 -35.13059,40.16751 -48.83946,63.00318 -37.70518,62.80775 -51.5762,140.51749 -37.82043,211.88181 11.92049,61.84299 40.89591,116.12594 86.00409,161.12126 26.97998,26.91249 53.56402,45.69717 87.19842,61.61573 32.60072,15.42933 53.10191,21.50891 90.34811,26.79249 20.85927,2.959 20.23678,2.92485 46.5,2.5511 17.81784,-0.25357 27.60625,-0.88257 38,-2.44185 z m -63.5,-4.67954 c -43.42308,-2.98739 -86.17521,-14.75521 -121.5,-33.44371 -45.82088,-24.24144 -87.9621,-63.0713 -115.45242,-106.38046 -22.21789,-35.00279 -37.33375,-75.3069 -43.51156,-116.01683 -5.30028,-34.92731 -4.35125,-68.87568 2.93528,-105 16.52035,-81.90259 67.51007,-154.54851 138.81222,-197.7681 37.7338,-22.87224 80.80156,-37.14182 126.0654,-41.76908 16.00371,-1.63604 60.46739,-0.73844 74.52663,1.50448 82.02765,13.08616 153.46817,56.60463 199.779,121.69673 31.46711,44.22852 50.50234,95.31114 55.37668,148.60792 1.93782,21.18841 0.78185,58.29228 -2.3593,75.72805 -6.05455,33.60737 -12.79732,54.77196 -26.12414,82 -36.15339,73.86502 -97.24804,128.42731 -173.54779,154.99172 -35.06108,12.20681 -79.3074,18.30483 -115,15.84928 z m 51.5,-2.87438 c 37.82379,-4.52604 68.74518,-13.82742 101.59307,-30.55994 75.53337,-38.47626 133.63258,-110.57058 154.25036,-191.40668 7.90633,-30.99833 10.16688,-50.94732 9.34647,-82.48126 -0.90873,-34.92853 -5.25505,-59.68025 -16.07039,-91.51874 -14.45447,-42.55148 -37.98195,-80.6999 -69.11951,-112.07322 -22.14835,-22.31604 -39.74522,-35.84616 -67,-51.51584 -30.53193,-17.55383 -70.59419,-30.87227 -108,-35.9039 -13.27343,-1.78548 -50.76898,-2.42029 -65.0992,-1.10215 -31.93396,2.93738 -60.43295,9.86743 -89.9008,21.86103 -64.88798,26.4098 -119.62539,77.56277 -151.80795,141.8669 -23.66463,47.28442 -34.57329,98.79136 -31.68757,149.61786 2.0201,35.58026 7.63545,62.32504 19.47371,92.74932 15.55555,39.97772 38.18776,74.62739 68.20967,104.42832 54.46679,54.06586 120.56247,83.30791 198.81214,87.95847 9.99981,0.59431 34.27453,-0.39742 47,-1.92017 z m -46.5,-4.10008 c -39.21247,-2.38359 -71.8896,-10.18281 -106.6846,-25.46297 -33.13084,-14.54934 -59.72427,-33.20431 -88.87818,-62.34699 -28.28155,-28.27064 -47.34315,-56.84014 -63.75543,-95.55658 -15.26636,-36.01322 -22.6518,-77.33206 -21.35975,-119.5 0.81599,-26.63121 4.14075,-47.59457 11.75491,-74.11739 12.76624,-44.46934 39.42924,-89.55115 72.99251,-123.41578 45.96866,-46.3814 105.70712,-75.98541 170.43054,-84.45861 35.84876,-4.6931 78.45083,-2.20746 111.09267,6.48176 27.64197,7.35826 62.04626,22.24166 83.40733,36.08227 35.96671,23.30414 64.20762,50.85599 86.85017,84.73109 31.82603,47.61432 48.02836,99.04888 49.86564,158.2993 0.62074,20.01819 -0.97775,37.29758 -5.7723,62.39736 -9.62183,50.37088 -33.10329,97.27076 -69.60399,139.02115 -9.70734,11.10348 -36.03638,34.78063 -47.65946,42.85914 -21.07875,14.65057 -37.46633,23.79718 -57.18006,31.91463 -27.44062,11.29911 -56.1969,18.91711 -81.5,21.59064 -10.79299,1.14039 -35.77179,1.98114 -44,1.48098 z m 41.78941,-2.41562 c 39.84255,-4.30436 86.30311,-19.66816 117.71059,-38.9251 52.28444,-32.05727 90.42467,-73.46055 115.61382,-125.50503 14.59977,-30.16527 22.83979,-58.13703 27.40239,-93.02079 4.36578,-33.37896 1.89315,-70.53509 -7.12052,-107 -9.34949,-37.82348 -29.50364,-77.95732 -55.99233,-111.5 -9.45743,-11.97596 -34.0478,-36.14388 -45.93426,-45.14513 -36.62012,-27.7313 -77.6516,-47.20336 -118.4691,-56.22117 -34.01988,-7.516 -79.87063,-8.12074 -115.99291,-1.52986 -45.36258,8.27687 -92.20576,29.69221 -129.18123,59.05791 -12.79203,10.15935 -33.92102,31.19742 -44.0818,43.89211 -19.26307,24.06692 -37.08528,55.15594 -46.97676,81.94614 -6.1766,16.7288 -13.10329,43.92694 -15.90945,62.4697 -2.54736,16.83259 -3.0746,56.47625 -0.97128,73.0303 8.05001,63.3569 34.18006,119.80267 77.15086,166.66027 9.73116,10.61136 31.72654,29.73044 45.56958,39.61052 39.22011,27.99224 86.61585,46.0324 135.89299,51.72472 13.76062,1.58957 48.40818,1.84703 61.28941,0.45541 z m -43.78941,-70.99015 c -45.24314,-2.27022 -86.51362,-18.17336 -122.84664,-47.33766 -38.82066,-31.16113 -65.20709,-72.12605 -77.69373,-120.61952 -19.46217,-75.58382 6.20651,-161.58603 63.98623,-214.38411 31.09334,-28.41254 58.32138,-42.96043 99.18456,-52.99414 20.52007,-5.03857 29.86874,-5.94162 55.59094,-5.36988 25.36474,0.56379 37.79201,2.35689 57.27864,8.2646 35.00608,10.6127 52.60669,19.67495 78.44983,40.39246 26.27111,21.06061 47.66903,48.81614 61.35735,79.58748 21.79436,48.99371 26.03003,96.47277 13.15865,147.5 -14.13291,56.0284 -51.43333,105.0291 -103.61641,136.11846 -11.80507,7.03317 -19.59927,10.68608 -31.34942,14.69253 -10.71086,3.65209 -27.40638,8.50047 -36.66637,10.64792 -7.43375,1.72394 -33.04468,4.62674 -38.69044,4.38526 -2.00376,-0.0857 -10.16819,-0.48323 -18.14319,-0.8834 z m 26,-4.94888 c 34.76774,-2.93562 50.90168,-7.11086 76.5,-19.79713 23.69,-11.74053 39.67707,-22.67816 55.7657,-38.15235 30.5249,-29.35914 47.32332,-55.62925 60.14821,-94.06241 7.79413,-23.35719 9.80905,-36.05888 9.83527,-62 0.0302,-29.86782 -2.89287,-46.97889 -12.72677,-74.5 -15.87125,-44.41717 -51.65291,-88.02327 -91.52241,-111.53577 -9.48026,-5.59085 -32.62003,-16.895 -41.99882,-20.51709 -34.94509,-13.49581 -94.73003,-13.61508 -132.94452,-0.26523 -11.14136,3.89212 -34.06504,14.9798 -45.95919,22.22945 -25.86446,15.76475 -48.33789,37.62748 -66.3121,64.51012 -18.40536,27.52747 -28.88065,55.36157 -34.3181,91.18729 -3.19473,21.04909 -1.31914,57.33547 4.02205,77.81344 5.88523,22.56377 18.09384,50.26576 29.65694,67.29317 7.98698,11.76136 20.44642,26.60669 30.73462,36.62009 29.74215,28.94772 66.11736,48.68681 104.42416,56.66601 26.28654,5.47541 34.87652,6.18378 54.69496,4.51041 z m -31.073,-16.87549 c 0.54855,-1.02498 3.26438,-3.59245 6.03518,-5.70548 2.7708,-2.11304 5.03782,-4.40699 5.03782,-5.09767 0,-1.56011 -9.05411,-4.33325 -14.14776,-4.33325 -2.71829,0 -5.53103,1.12867 -9.98203,4.00549 -3.4085,2.20302 -8.03619,4.55692 -10.28374,5.2309 -5.67176,1.70078 -23.40783,1.60347 -26.53056,-0.14557 -2.42046,-1.3557 -2.38143,-1.40052 4.03756,-4.63657 3.5649,-1.79719 9.72724,-4.25345 13.69408,-5.45834 3.96685,-1.20489 7.21245,-2.52565 7.21245,-2.93503 0,-0.95701 -6.99255,-3.06088 -10.17336,-3.06088 -1.34272,0 -5.44908,1.51329 -9.12524,3.36288 -7.98559,4.01778 -13.35015,4.90465 -21.6158,3.5735 -7.91251,-1.27427 -17.0856,-4.70474 -17.0856,-6.38952 0,-1.64358 5.91488,-3.15336 18.33261,-4.67941 5.31706,-0.65343 9.66739,-1.48257 9.66739,-1.84254 0,-1.17982 -7.00383,-4.02491 -9.9082,-4.02491 -1.5622,0 -4.75351,0.675 -7.0918,1.5 -9.16486,3.23355 -21.94047,1.35279 -32.47067,-4.78017 -8.93644,-5.20472 -7.51024,-6.21983 8.73865,-6.21983 7.55394,0 13.73389,-0.3008 13.73322,-0.66844 -6.6e-4,-0.36764 -1.6887,-1.71764 -3.7512,-3 -3.33016,-2.07052 -4.98155,-2.33313 -14.75,-2.34559 -10.08422,-0.0128 -11.45789,-0.24877 -16.5,-2.83376 -6.93983,-3.55791 -15,-9.66091 -15,-11.3577 0,-1.74783 5.59445,-1.66832 16.50657,0.2346 4.8227,0.841 9.04414,1.24386 9.38099,0.89524 0.33684,-0.34863 -0.92041,-1.82423 -2.79389,-3.27911 -2.58783,-2.00962 -5.46437,-2.9434 -11.97111,-3.88607 -4.89958,-0.70983 -10.79818,-2.33353 -13.78376,-3.79423 -5.44473,-2.66386 -15.3388,-12.4512 -15.3388,-15.17334 0,-1.99777 5.62731,-1.18588 15.44493,2.22835 3.8231,1.32955 7.10548,2.26297 7.29418,2.07427 0.18869,-0.1887 -0.79071,-1.69053 -2.17647,-3.3374 -1.64597,-1.95613 -3.82721,-3.21132 -6.29109,-3.6202 -5.71071,-0.9477 -14.31457,-5.31475 -18.60919,-9.44546 -3.13708,-3.01734 -9.66236,-13.59479 -9.66236,-15.66264 0,-1.52523 4.46822,0.0239 12.75,4.42027 5.0875,2.70073 9.25,4.46251 9.25,3.91507 0,-2.71096 -2.72819,-5.14146 -10.04269,-8.94688 -4.8382,-2.51711 -9.39324,-5.77661 -11.48079,-8.21544 -3.9405,-4.60359 -8.0676,-14.51046 -6.63974,-15.93832 1.129,-1.129 7.10528,1.79577 12.56697,6.15024 2.14706,1.7118 4.11424,2.90188 4.37149,2.64462 0.25726,-0.25725 -0.66282,-2.40056 -2.04463,-4.76291 -1.3818,-2.36234 -3.23648,-6.73935 -4.12149,-9.72667 -1.99537,-6.73525 -2.13486,-18.96725 -0.24577,-21.55074 1.30294,-1.78188 1.43957,-1.74817 3.08347,0.76073 3.0803,4.70114 6.67329,16.73848 7.18189,24.06098 0.27354,3.93829 0.71573,8.22552 0.98264,9.52718 0.53221,2.59539 0.20091,3.06779 7.27036,-10.36665 1.4471,-2.75 3.07821,-4.93111 3.62469,-4.84691 0.54648,0.0842 1.5955,1.8842 2.33116,4 1.8251,5.2491 0.91969,13.55479 -2.24842,20.62542 -3.02033,6.74084 -3.25739,11.29506 -0.7571,14.54508 l 1.78757,2.32359 1.11943,-6.0194 c 1.38389,-7.44148 4.82406,-15.44008 6.41293,-14.91046 3.77472,1.25824 6.01217,19.26633 3.47722,27.98628 -2.21286,7.61194 -2.07761,8.9926 1.18725,12.12054 l 2.81645,2.69833 0.12393,-7.76124 c 0.14341,-8.9812 1.29064,-13.76123 3.30276,-13.76123 0.77863,0 2.99625,3.10516 4.92805,6.90035 3.30284,6.48871 3.51706,7.50284 3.59105,17 0.0433,5.55481 0.40738,11.10046 0.80914,12.32367 0.74688,2.274 6.32366,6.89783 7.22833,5.99316 0.27556,-0.27556 -0.22282,-2.23339 -1.10751,-4.35073 -2.00894,-4.80808 -3.22359,-18.80655 -1.71287,-19.74024 1.61341,-0.99714 6.76495,5.04334 10.74469,12.59879 2.64229,5.01633 3.83451,8.90879 4.69232,15.32001 l 1.15,8.59501 4.35378,2.55148 c 4.38297,2.5686 6.53823,2.54946 4.39002,-0.039 -0.63713,-0.76769 -2.27625,-4.68238 -3.6425,-8.69931 -2.51277,-7.38786 -3.20653,-12.95321 -1.61471,-12.95321 1.42723,0 10.46726,7.57171 12.74841,10.67775 3.40247,4.63285 6.01792,10.41943 7.37741,16.32225 0.6967,3.025 1.69324,6.03882 2.21453,6.69737 1.27887,1.6156 9.66754,4.7587 10.49422,3.93202 0.36264,-0.36264 -0.76295,-2.12679 -2.50132,-3.92033 -4.4309,-4.57154 -10.30875,-19.70906 -7.65296,-19.70906 1.28069,0 7.30155,3.57788 12.03568,7.15218 5.2875,3.99211 9.25632,10.07463 11.47198,17.58171 1.6989,5.75622 3.72432,7.28498 10.58949,7.9928 l 5.85319,0.60349 -5.41943,-5.91509 c -5.82733,-6.36031 -11.08057,-13.99839 -11.08057,-16.11087 0,-1.95907 1.86195,-1.60449 8.79317,1.67452 6.76895,3.20225 15.18095,10.8518 19.55773,17.78507 3.58965,5.68639 5.60549,6.80287 17.70745,9.80739 10.18783,2.5293 10.6118,2.55439 17.44165,1.03219 3.85,-0.85807 9.09099,-1.83898 11.64665,-2.1798 6.69299,-0.89259 9.95385,-3.30159 15.24743,-11.26428 2.59607,-3.90505 6.78491,-8.58601 9.39532,-10.49911 5.56116,-4.07564 13.91653,-8.2876 14.76239,-7.44174 1.70943,1.70943 -7.28845,14.53523 -13.15046,18.74501 -5.90272,4.23901 -5.70166,5.46668 0.75505,4.61017 5.55025,-0.73627 10.69234,-2.94321 11.3607,-4.87593 3.62299,-10.47677 5.19043,-13.45409 9.01092,-17.11606 4.49385,-4.3074 14.97196,-10.41502 16.03834,-9.34864 1.11252,1.11252 -3.60096,12.1266 -7.13929,16.68254 -1.88611,2.42855 -3.2801,4.56473 -3.09776,4.74708 0.72983,0.72983 9.56195,-2.89151 10.90727,-4.47219 0.79131,-0.92974 2.2404,-4.74136 3.2202,-8.47025 1.31017,-4.98617 2.95807,-8.20901 6.22892,-12.18208 4.90058,-5.95269 11.0806,-11.10516 12.0987,-10.08706 0.80862,0.80862 -2.19616,12.50711 -4.41172,17.17604 -0.89896,1.89443 -1.43229,3.64661 -1.18517,3.89374 0.24712,0.24712 2.44353,-0.55647 4.88091,-1.78576 l 4.4316,-2.23507 1.15085,-8.22662 c 0.87244,-6.23638 2.05837,-9.86527 4.90205,-15 5.14779,-9.29516 7.33539,-12.27338 9.01519,-12.27338 2.22527,0 1.90901,12.72291 -0.47202,18.98927 -1.04716,2.7559 -1.59266,5.01073 -1.21223,5.01073 0.38044,0 2.24971,-1.29992 4.15393,-2.8887 l 3.46223,-2.8887 0.56869,-11.8613 c 0.48614,-10.13955 0.94658,-12.5962 3.17199,-16.92412 5.46448,-10.62714 8.25932,-9.0328 8.25932,4.71161 0,4.86373 0.31459,8.84496 0.6991,8.84718 0.38451,0.002 1.89669,-1.56607 3.36039,-3.48509 l 2.66128,-3.48911 -1.72172,-7.02563 c -1.96089,-8.00159 -1.49011,-13.83735 1.51492,-18.77872 1.07614,-1.76958 2.66121,-3.21742 3.52235,-3.21742 2.00485,0 4.45318,5.83178 4.49964,10.71788 l 0.036,3.78212 2.43514,-2.98018 c 3.5596,-4.35631 3.89587,-7.4637 1.47504,-13.63051 -2.87243,-7.31724 -3.76912,-20.63417 -1.57491,-23.38931 1.58748,-1.99331 1.59793,-1.99337 3.12315,-0.0174 2.03977,2.64262 4.46966,11.02183 4.46966,15.41317 0,3.13352 0.1688,3.36398 1.4936,2.03918 0.87217,-0.87218 2.08101,-5.64199 2.90545,-11.46429 0.82842,-5.85041 2.55655,-12.65673 4.1819,-16.47068 3.24156,-7.60644 4.17702,-9 6.04149,-9 1.04465,0 1.37756,1.76945 1.37756,7.32186 0,8.20557 -1.91004,14.88999 -6.17758,21.6192 -3.87066,6.1034 -3.53718,7.14489 0.92758,2.89689 4.23727,-4.03155 13.80393,-9.61735 14.78728,-8.63401 0.35626,0.35627 -0.10763,3.26862 -1.03086,6.47191 -2.13719,7.41527 -9.65506,15.09491 -19.10675,19.51789 -5.1679,2.41835 -6.8725,3.81276 -8.45647,6.91758 -1.09112,2.13877 -1.74076,3.88868 -1.44366,3.88868 0.29711,0 2.21876,-1.05691 4.27033,-2.34869 6.33213,-3.98704 17.50282,-8.77862 18.39224,-7.8892 0.97698,0.97698 -5.04562,11.42512 -8.94472,15.51751 -3.30544,3.4693 -12.86793,8.31659 -18.17555,9.21331 -3.61974,0.61155 -9.04184,5.03169 -9.04184,7.37098 0,0.39075 4.3875,-0.74598 9.75,-2.52607 14.66716,-4.86879 15.83239,-4.44201 9.72777,3.5629 -6.52942,8.56193 -17.99149,14.09926 -29.18499,14.09926 -3.52633,0 -5.00199,0.64593 -8.31633,3.64024 -2.21612,2.00213 -3.88576,3.78378 -3.71031,3.95923 0.17545,0.17545 2.77484,-0.29461 5.77642,-1.04458 8.51422,-2.12733 19.6277,-2.89742 20.53882,-1.4232 1.00409,1.62464 -6.11458,7.93923 -12.34098,10.94703 -3.91767,1.89252 -6.99667,2.38813 -17.7404,2.85562 -10.46956,0.45555 -13.63261,0.94826 -16.25,2.53127 -1.7875,1.08108 -3.25,2.31858 -3.25,2.75 0,0.43141 3.9375,0.7883 8.75,0.79308 10.46628,0.0104 19.25,0.96066 19.25,2.08256 0,1.51462 -9.00393,7.01782 -14.67348,8.96843 -7.22034,2.48416 -15.01406,2.46218 -23.82971,-0.0672 l -6.99681,-2.00754 -5.25,2.12368 c -2.8875,1.16803 -5.25,2.469 -5.25,2.89104 0,0.42205 3.0375,1.07909 6.75,1.46009 7.83644,0.80423 20.39042,3.42062 21.54238,4.48968 2.42812,2.25337 -12.98535,7.17687 -22.55994,7.20627 -5.75163,0.0177 -7.96074,-0.53914 -14.7159,-3.70914 -7.27496,-3.41393 -8.43278,-3.67298 -13.66658,-3.05785 -8.86422,1.04181 -10.81715,3.77376 -3.61101,5.05143 4.34481,0.77034 21.26105,8.49339 21.26105,9.70666 0,1.40827 -5.22023,2.35322 -13,2.35322 -8.8714,0 -14.84635,-1.98507 -23.47929,-7.80057 l -5.97929,-4.02789 -6.63688,1.1381 c -8.50925,1.45917 -11.90454,2.77318 -11.90454,4.60716 0,0.80647 2.7,3.54391 6,6.0832 5.73496,4.41295 7.30313,6.5 4.88397,6.5 -0.61381,0 -3.20131,-1.51678 -5.75,-3.37061 -6.04462,-4.39667 -10.50537,-6.62939 -13.24482,-6.62939 -1.21559,0 -5.52634,2.25 -9.57945,5 -7.83799,5.31801 -11.14121,6.42219 -9.3827,3.1364 z M -534.165,574.70783 c -0.0371,-0.62747 -0.009,-27.05013 0.0627,-58.71702 0.0716,-31.66689 -0.17184,-58.77939 -0.54094,-60.25 l -0.67109,-2.67383 h -22.39159 c -26.40309,0 -26.66816,-0.15662 -15.2319,-9 3.91193,-3.025 14.36384,-11.96199 23.22645,-19.85997 8.86262,-7.89799 18.23069,-15.99799 20.81793,-18 7.84974,-6.07417 7.90117,-6.32627 7.14154,-35.00672 -0.52115,-19.67593 -0.38866,-25.37652 0.61795,-26.58941 1.08304,-1.30498 4.63596,-1.5439 22.95888,-1.5439 15.52699,0 22.01803,0.34047 22.87756,1.2 0.66,0.66 1.2,3.33344 1.2,5.94098 0,2.60754 0.39505,4.98514 0.87789,5.28355 0.96091,0.59388 5.20427,-2.90962 21.12211,-17.4393 5.775,-5.27137 12.75,-11.35431 15.5,-13.51764 2.75,-2.16333 7.7499,-6.30354 11.1109,-9.20046 3.36099,-2.89692 6.77454,-5.26713 7.58565,-5.26713 1.65349,0 14.8149,10.70229 34.38713,27.96212 7.19602,6.34583 18.58923,16.26288 25.31823,22.03788 13.13795,11.27532 37.71356,32.56459 61.71282,53.46035 21.89321,19.06206 40.50631,36.67603 40.08768,37.93582 -0.24577,0.73961 -7.59874,1.26881 -22.28461,1.60383 l -21.9178,0.5 -0.51939,61 c -0.28566,33.55 -0.62316,61.07353 -0.75,61.16341 -0.12684,0.0899 -52.43061,0.15326 -116.23061,0.14085 -86.16085,-0.0168 -116.01736,-0.31603 -116.06747,-1.16341 z m 23.70031,-19.89085 c 11.41353,-14.24527 33.16649,-36.85279 45.36716,-47.1494 31.30302,-26.41782 70.75637,-48.8884 107.23505,-61.07551 13.75544,-4.59554 29.25366,-8.44107 35.31475,-8.76254 l 4.9502,-0.26255 v 3.91667 c 0,3.87307 -0.0612,3.93573 -5.5,5.63044 -35.41466,11.03505 -41.61761,13.4141 -63.80495,24.47148 -30.67475,15.28722 -48.36747,26.72971 -72.72026,47.03071 -14.83445,12.36631 -44.47479,43.3581 -44.47479,46.50261 0,0.52727 3.99766,0.94809 9.00661,0.94809 8.62904,0 9.09821,-0.11529 11.19157,-2.75 6.7593,-8.50731 36.11869,-36.20872 48.57276,-45.82977 33.43433,-25.82875 69.29344,-43.32548 111.64889,-54.47682 6.00591,-1.58123 11.28652,-3.45287 11.73469,-4.15919 0.44817,-0.70632 0.82174,-4.53469 0.83016,-8.50749 l 0.0153,-7.22327 14.66789,-0.27673 c 9.72298,-0.18344 14.7935,-0.65479 15.04047,-1.39814 0.20492,-0.61678 -5.38313,-6.10353 -12.41789,-12.19277 -7.03476,-6.08924 -21.34047,-18.54309 -31.79047,-27.67521 -21.9212,-19.15666 -28.78655,-25.10237 -51.64122,-44.7237 -9.15267,-7.8578 -21.90777,-18.98274 -28.34468,-24.72208 -8.49309,-7.5727 -12.06532,-10.17864 -13.02263,-9.5 -1.29296,0.91659 -34.5611,29.98199 -53.65945,46.8807 -5.31739,4.70496 -10.15489,8.55447 -10.75,8.55447 -0.71764,0 -1.08202,-4.1605 -1.08202,-12.35451 v -12.35452 l -12.74351,-0.55035 c -7.36357,-0.31801 -13.49856,-0.14626 -14.53202,0.40684 -1.66735,0.89234 -1.74354,2.47162 -1.12448,23.31079 0.36522,12.29448 0.37395,23.50944 0.0194,24.92213 -0.37391,1.48977 -4.13031,5.62415 -8.94407,9.84407 -4.56467,4.00155 -12.54648,11.05548 -17.73736,15.6754 -5.19087,4.61992 -10.91314,9.70487 -12.71613,11.2999 -1.803,1.59502 -3.01395,3.32758 -2.69099,3.85014 0.32705,0.52917 6.98513,0.95011 15.02818,0.95011 10.85093,0 14.45739,0.31075 14.50697,1.25 0.0363,0.6875 0.008,27.94514 -0.0622,60.57254 -0.13069,60.46429 -0.0335,62.17746 3.52767,62.17746 0.70759,0 5.70323,-5.5125 11.10142,-12.25 z m 38.48983,-80.75 c -2.92792,-2.2 -6.06725,-4 -6.97628,-4 -0.90904,0 -3.85121,1.56302 -6.53816,3.47337 -2.68696,1.91036 -5.22915,3.26092 -5.64931,3.00124 -0.42016,-0.25967 -0.0906,-2.61019 0.73245,-5.22337 0.82301,-2.61318 1.7146,-5.47365 1.98131,-6.35659 0.3176,-1.05141 -1.4401,-3.24995 -5.09388,-6.37148 -3.06834,-2.62136 -5.5788,-5.16146 -5.5788,-5.64465 0,-0.48318 3.3204,-0.87852 7.37868,-0.87852 8.23601,0 7.85489,0.34707 10.73689,-9.7778 0.66971,-2.35278 1.67616,-4.12496 2.23655,-3.93816 0.56038,0.18679 1.98472,3.2368 3.16518,6.77779 l 2.14629,6.43817 7.1682,0.29381 c 4.80732,0.19704 7.14945,0.69107 7.11126,1.5 -0.0313,0.6634 -2.28133,2.90053 -5,4.97139 -2.71868,2.07086 -4.94305,4.36292 -4.94305,5.09345 0,0.73054 0.9,3.94414 2,7.14135 3.13506,9.11223 2.85721,9.31162 -4.87733,3.5 z m 106.26465,-48.4071 c 0.33228,-1.32391 0.86654,-3.09088 1.18724,-3.92662 0.3505,-0.9134 -0.68788,-2.84517 -2.60321,-4.8429 l -3.1863,-3.32338 3.85747,-0.5 c 3.25673,-0.42213 4.14284,-1.08401 5.68983,-4.25 1.0078,-2.0625 2.1328,-3.74879 2.5,-3.7473 0.36721,10e-4 1.56765,1.68899 2.66765,3.75 1.59203,2.98291 2.66295,3.81122 5.25,4.06066 3.92611,0.37854 4.03839,1.09876 0.66452,4.26232 -2.20857,2.07091 -2.49563,2.9883 -1.96918,6.29313 0.54761,3.43766 0.41783,3.78615 -1.16453,3.12699 -7.19932,-2.99898 -7.12232,-2.99333 -9.56115,-0.70216 -3.04085,2.85672 -4.08394,2.79389 -3.33234,-0.20074 z m -70.38732,0.89319 c 0,-0.28264 1.19933,-4.83714 2.66519,-10.12109 l 2.66519,-9.60719 -2.41519,-1.91997 c -1.32836,-1.05599 -5.00269,-3.71826 -8.16519,-5.91617 -3.1625,-2.19791 -5.75,-4.42943 -5.75,-4.95893 0,-1.19502 -1.13194,-1.01843 10,-1.56004 5.225,-0.25422 10.01455,-0.6413 10.64346,-0.86019 0.6289,-0.21889 2.59173,-4.74517 4.36183,-10.05841 1.77011,-5.31324 3.55264,-9.28326 3.96117,-8.82227 0.40854,0.46099 2.01883,4.66317 3.57842,9.33817 1.55959,4.675 3.25511,9.0625 3.76781,9.75 0.63006,0.84486 3.97154,1.25 10.30975,1.25 5.68046,0 9.37756,0.40036 9.37756,1.0155 0,0.55852 -3.15,3.31382 -7,6.12287 -4.91667,3.58732 -6.99275,5.74044 -6.97562,7.2345 0.0134,1.16992 1.08385,5.83963 2.37874,10.37713 1.2949,4.5375 1.9386,8.25 1.43046,8.25 -0.50815,0 -4.25826,-2.25 -8.33358,-5 -4.07533,-2.75 -7.83271,-5 -8.34975,-5 -0.51704,0 -4.3897,2.475 -8.60592,5.5 -7.02323,5.03893 -9.54433,6.35599 -9.54433,4.98609 z m -8.2001,132.26391 c 25.24022,-23.59658 48.3159,-39.53932 77.86384,-53.79531 15.93159,-7.68651 32.42249,-13.74012 44.84199,-16.46094 4.39685,-0.96325 8.55677,-2.1985 9.24427,-2.745 1.92481,-1.53006 1.67731,-13.64755 -0.29421,-14.40409 -0.84932,-0.32591 -5.91182,0.6438 -11.25,2.15492 -47.94377,13.57176 -95.97916,41.52774 -131.45579,76.50559 -7.5625,7.45617 -13.75,14.10526 -13.75,14.77575 0,0.86341 2.48646,1.21908 8.52244,1.21908 h 8.52245 z m 39.939,-0.54538 c 23.98798,-18.79956 57.34403,-36.57422 82.17777,-43.7906 4.62917,-1.34518 9.01667,-2.94374 9.75,-3.55235 1.97094,-1.63573 1.81248,-12.74057 -0.19278,-13.51006 -2.89219,-1.10984 -34.03869,9.94959 -48.97389,17.38953 -11.95068,5.9532 -28.20175,15.76319 -39.6752,23.95001 -9.72767,6.94113 -29.28174,22.62113 -30.33459,24.32469 -1.35365,2.19025 1.03137,2.98416 8.96486,2.98416 h 8.33704 z m 92.82453,5.39867 c 0.82748,-3.29697 0.11444,-37.82954 -0.81052,-39.25308 -1.08662,-1.67235 -15.53474,3.07178 -30.75291,10.09791 -18.58787,8.5819 -49,27.54092 -49,30.54677 0,0.65672 13.85819,1.00511 39.98094,1.00511 h 39.98095 z m -29.56343,-206.94674 c 0,-0.1889 0.9,-2.95935 2,-6.15655 1.1,-3.19721 2,-6.56896 2,-7.49278 0,-0.92382 -2.23196,-3.44087 -4.9599,-5.59345 -6.7417,-5.31977 -6.5656,-6.54255 0.83092,-5.76946 5.0925,0.53227 6.14634,0.33832 7.94725,-1.46259 1.14193,-1.14192 2.57218,-4.01246 3.17835,-6.37897 0.60617,-2.36652 1.29078,-4.86525 1.52136,-5.55275 0.92402,-2.755 2.46474,-0.94277 4.07372,4.79158 2.074,7.39168 3.61938,8.37584 12.08516,7.69628 3.49046,-0.28018 6.57154,-0.14496 6.84684,0.30049 0.2753,0.44544 -2.24291,2.96528 -5.59602,5.59963 -6.69784,5.26212 -6.74181,5.43605 -3.81257,15.0805 0.70468,2.32017 0.98111,4.51863 0.61427,4.88547 -0.36684,0.36684 -3.41327,-0.96898 -6.76985,-2.96849 -3.35658,-1.9995 -6.57938,-3.63546 -7.16178,-3.63546 -0.58239,0 -3.25118,1.575 -5.93064,3.5 -4.2705,3.06805 -6.86711,4.26161 -6.86711,3.15655 z m -161,-33.22547 c 0,-1.5412 -0.95226,-3.81581 -2.11613,-5.05469 l -2.11612,-2.25251 3.63018,-1.51679 c 1.9966,-0.83423 3.897,-2.2121 4.22311,-3.06194 0.84491,-2.20179 3.12811,-1.91085 3.892,0.49593 0.38455,1.21162 1.83429,2.27839 3.56738,2.625 3.45506,0.69101 3.61535,1.39427 0.88169,3.8682 -1.55296,1.40541 -1.88336,2.54778 -1.38852,4.80077 0.60333,2.74695 0.48197,2.9056 -1.71212,2.2383 -2.9306,-0.89131 -3.78399,-0.89507 -6.61147,-0.0292 -1.96198,0.60085 -2.25,0.33035 -2.25,-2.11312 z m 30.51487,-23.5191 c 0.6086,-3.60229 0.35918,-4.434 -2.0992,-7 l -2.78986,-2.91198 h 2.75284 c 3.76936,0 6.5386,-1.65217 7.64446,-4.5608 1.25,-3.28775 2.33846,-3.06965 4.04642,0.8108 1.13,2.56735 2.11312,3.31582 4.68047,3.56336 3.79213,0.36563 4.03593,1.1654 1.15112,3.77612 -1.64,1.48418 -1.9906,2.70676 -1.60362,5.59194 0.62816,4.68328 0.15195,5.10236 -3.59573,3.16436 -2.77855,-1.43684 -3.28351,-1.43336 -5.77751,0.0399 -4.38381,2.58959 -5.18855,2.13812 -4.40939,-2.47368 z m 92.48513,-0.28954 c 0,-2.67121 -0.5847,-4.8628 -1.5,-5.62244 -2.22145,-1.84364 -1.81908,-3.99783 0.75,-4.01531 2.82639,-0.0192 4.13585,-0.88703 5.63548,-3.73469 1.55801,-2.95854 2.93768,-2.84531 4.14893,0.34051 0.55174,1.45118 2.30009,3.08694 3.97525,3.71924 3.39631,1.28196 3.67919,2.27159 1.37661,4.81591 -1.32847,1.46795 -1.41605,2.35016 -0.49549,4.9909 1.4667,4.20735 0.76542,4.69163 -3.48174,2.40439 -3.32288,-1.78949 -3.66564,-1.80059 -6.36482,-0.20615 -1.56904,0.92686 -3.12088,1.6852 -3.44852,1.6852 -0.32764,0 -0.5957,-1.9699 -0.5957,-4.37756 z m -47.58275,-8.17885 c 0.4289,-1.06897 1.01064,-3.56338 1.29277,-5.54313 0.46804,-3.28435 0.19672,-3.79498 -3.09854,-5.83156 -4.73816,-2.92834 -4.56038,-4.06548 0.63852,-4.08421 5.44787,-0.0196 5.99637,-0.47005 7.8967,-6.48469 l 1.57976,-5 1.1209,3 c 2.7094,7.25149 3.45225,7.98287 8.43497,8.30479 2.59472,0.16763 4.71767,0.67672 4.71767,1.13131 0,0.45459 -1.62409,2.06527 -3.60909,3.5793 -3.11419,2.37531 -3.53722,3.18005 -3.08507,5.86869 0.2882,1.71375 0.83543,3.90341 1.21607,4.86591 0.93724,2.36997 -1.33293,2.24446 -4.52191,-0.25 -3.24491,-2.5382 -5.46394,-2.49443 -9.81325,0.19359 -3.3552,2.07363 -3.50666,2.08731 -2.7695,0.25 z m -175.19835,350.51947 -9.28109,-8.96306 -6.21891,-0.0119 c -12.39921,-0.0237 -22.72116,-4.25234 -32.33751,-13.24797 -6.51801,-6.09727 -13.38139,-14.62388 -13.38139,-16.62414 0,-0.61381 0.89461,-1.11602 1.98804,-1.11602 2.57309,0 19.98726,5.57665 26.76196,8.57015 6.16985,2.72624 6.5924,1.77406 1.80527,-4.06801 -2.91768,-3.56063 -4.30445,-4.37649 -9.06363,-5.33227 -9.22789,-1.85323 -18.30669,-6.78728 -24.99164,-13.58219 -7.99984,-8.13142 -16.17977,-23.58768 -12.48335,-23.58768 1.33269,0 21.6182,10.29941 25.48335,12.93847 4.33267,2.95828 4.62094,2.61925 2.37275,-2.79049 -1.87067,-4.50133 -2.49486,-5.0485 -8.63625,-7.57058 -8.48499,-3.48452 -16.90318,-9.40261 -21.07515,-14.81607 -7.85275,-10.1896 -14.63899,-30.53674 -8.74696,-26.22596 0.72516,0.53054 4.84663,3.40363 9.15882,6.38463 4.31219,2.98101 9.7815,7.2093 12.15402,9.39622 2.37252,2.18691 4.46731,3.79791 4.65508,3.57999 0.18777,-0.21792 -0.38393,-2.64278 -1.27046,-5.38858 -1.41392,-4.37931 -2.3902,-5.50088 -7.95035,-9.13346 -8.92543,-5.83121 -13.54225,-10.66718 -17.65413,-18.4921 -3.29949,-6.27894 -7.50737,-19.7545 -7.50737,-24.04203 0,-3.67243 2.938,-1.62645 13.8716,9.65996 6.12728,6.325 11.28211,11.5 11.45517,11.5 0.17307,0 0.0295,-2.22279 -0.31902,-4.93954 -0.58258,-4.5412 -1.21203,-5.475 -7.80533,-11.57938 -10.74887,-9.95181 -15.59475,-21.28413 -16.24131,-37.98108 -0.22674,-5.8552 -0.0945,-6.5 1.33314,-6.5 1.45818,0 12.28766,14.23417 16.46676,21.64376 l 2.73899,4.85624 0.30162,-5.23177 c 0.2891,-5.01446 0.0848,-5.49214 -4.91772,-11.5 -7.91524,-9.50589 -10.21795,-15.31313 -10.70759,-27.0037 -0.49026,-11.70508 0.38652,-18.76453 2.33053,-18.76453 1.61759,0 11.72582,18.48603 13.5995,24.87089 1.02198,3.48255 1.43209,3.99065 2.01788,2.5 1.94026,-4.9374 0.88144,-9.79608 -3.66396,-16.81309 -5.2225,-8.06229 -7.46026,-14.74893 -7.46026,-22.2919 0,-6.63175 2.72517,-19.26365 4.5741,-21.20219 1.17373,-1.23061 1.87042,-0.33795 4.86523,6.23371 1.92243,4.2185 4.28553,10.26483 5.25133,13.43629 l 1.756,5.76629 0.63908,-10.06875 c 0.54297,-8.55435 1.13647,-11.11126 3.94599,-17 3.33125,-6.98228 13.03426,-18.43125 15.62049,-18.43125 1.72307,0 1.69939,2.68367 -0.10589,12 -2.61794,13.51014 -3.62003,15.99823 -13.00988,32.30207 -1.52111,2.64114 -2.50097,5.06674 -2.17748,5.39024 0.32349,0.32349 2.38884,-1.03863 4.58967,-3.02695 5.18321,-4.68272 17.94083,-11.17589 19.29583,-9.82088 0.66023,0.66023 0.0448,3.46227 -1.82842,8.32534 -2.31508,6.01004 -4.02146,8.50695 -9.47479,13.86427 -3.65815,3.59376 -8.74607,7.64376 -11.30649,9 -5.03762,2.66843 -5.2329,3.00317 -6.10547,10.46591 -0.50027,4.27858 -0.40027,4.72286 0.69304,3.0792 5.08893,-7.65056 19.11322,-18.64363 21.16583,-16.59103 1.34595,1.34596 -1.89079,13.47827 -5.04895,18.92502 -1.46275,2.52274 -6.41248,8.44109 -10.99939,13.15188 -7.32531,7.52314 -8.33983,9.00338 -8.33983,12.16821 0,6.88836 1.02224,7.30422 4.21462,1.71456 2.88363,-5.04904 14.99514,-17.94784 16.85239,-17.94784 1.2589,0 1.17858,7.29975 -0.16028,14.56634 -1.4998,8.14006 -5.04312,15.21587 -12.0096,23.98245 -6.13126,7.71554 -6.77268,9.82348 -5.27213,17.32621 0.66513,3.32565 2.36839,4.30772 2.38476,1.375 0.0278,-4.98348 13.46412,-26.25 16.58489,-26.25 2.00171,0 1.90552,17.64971 -0.13919,25.5399 -1.42736,5.50794 -7.69387,17.59751 -11.25537,21.71423 -1.31824,1.52375 -1.34311,2.48125 -0.18936,7.29062 0.7305,3.04507 1.91262,6.30571 2.62692,7.24587 1.1394,1.49966 1.30264,1.25209 1.33054,-2.01779 0.0598,-7.00306 9.89586,-28.27283 13.07463,-28.27283 1.09303,0 1.8114,2.61406 2.87463,10.46047 1.74097,12.84785 0.68588,20.53883 -4.44044,32.3682 -1.91236,4.41291 -3.47701,8.85708 -3.47701,9.87592 0,2.01851 5.65623,13.79541 6.62568,13.79541 0.32829,0 0.31035,-1.52742 -0.0399,-3.39426 -0.35022,-1.86684 -0.15399,-6.47934 0.43607,-10.25 1.23128,-7.86825 6.18804,-22.59238 7.78472,-23.12461 2.77806,-0.92602 8.19414,17.39215 8.1921,27.70721 -7.1e-4,3.60891 -1.1333,11.23417 -2.51687,16.94502 l -2.51557,10.38336 2.44113,4.11664 c 5.32416,8.97849 5.57171,8.98429 4.9844,0.11664 -0.37505,-5.66278 0.038,-11.00665 1.41387,-18.29136 2.05493,-10.88023 2.41418,-11.80884 4.1527,-10.73437 1.82891,1.13033 7.72453,13.67124 10.09343,21.47033 1.99706,6.57489 2.17557,8.77729 1.6764,20.68279 l -0.55866,13.32433 8.16523,7.65456 c 4.49088,4.21001 8.50554,8.23593 8.92147,8.94648 0.71423,1.22017 -1.56926,4.49242 -3.07766,4.4103 -0.37322,-0.0203 -4.85507,-4.07032 -9.95967,-9 z m 11.7811,5.69917 c 0,-0.73577 -3.8343,-4.82816 -8.52066,-9.0942 l -8.52065,-7.75643 0.66083,-13.1677 c 0.54386,-10.83685 0.35933,-14.22766 -1.04242,-19.1558 -2.00679,-7.05525 -8.53254,-21.4881 -9.71575,-21.4881 -0.45279,0 -1.10195,1.2375 -1.44258,2.75 -0.34064,1.5125 -0.9831,4.325 -1.42769,6.25 -2.25741,9.77408 -2.14387,14.56729 0.65144,27.5 0.64536,2.98585 0.63849,2.99119 -1.45689,1.13135 -1.15793,-1.02775 -4.00108,-4.77837 -6.31812,-8.3347 l -4.21281,-6.46607 2.69081,-12.16529 c 1.47994,-6.69091 2.67948,-13.96529 2.66564,-16.16529 -0.0301,-4.78099 -3.45048,-19.55183 -5.38049,-23.23539 -1.29584,-2.47319 -1.42634,-2.51128 -2.36731,-0.69105 -4.91642,9.51046 -7.75362,27.71271 -5.38064,34.51984 0.61947,1.777 0.90203,3.45518 0.62793,3.72929 -1.13807,1.13807 -4.44483,-3.35452 -7.92023,-10.76047 l -3.70494,-7.89511 3.97009,-9.33356 c 5.4133,-12.72651 6.49013,-19.28815 5.08835,-31.00577 -0.61374,-5.13028 -1.47008,-9.69816 -1.90297,-10.15085 -0.88781,-0.9284 -7.29796,10.04086 -9.6719,16.55087 -0.85684,2.34971 -1.86118,7.6472 -2.23187,11.7722 -0.63018,7.01278 -0.76274,7.34173 -2.04048,5.06365 -0.75159,-1.33998 -2.37309,-5.69878 -3.60335,-9.68622 l -2.23684,-7.24988 5.33504,-8.73192 c 2.93427,-4.80255 6.07577,-10.79375 6.9811,-13.31377 1.91903,-5.34163 3.25174,-26.08186 1.67595,-26.08186 -3.15197,0 -14.47615,19.46847 -15.76643,27.10556 -0.36188,2.14194 -1.03808,3.89444 -1.50267,3.89444 -1.09885,0 -1.672,-1.9998 -2.99334,-10.44425 -1.00645,-6.43205 -0.93369,-7.13277 0.98646,-9.5 7.25358,-8.94252 11.60669,-15.19946 13.66762,-19.64516 2.39476,-5.16582 5.1496,-20.95964 3.87592,-22.22109 -1.36827,-1.35513 -13.30168,12.57518 -16.48319,19.24144 -1.73545,3.63629 -3.57782,6.35035 -4.09416,6.03124 -0.51634,-0.31912 -0.9388,-4.01572 -0.9388,-8.21467 v -7.63445 l 8.38327,-8.19671 c 5.97981,-5.84673 9.26919,-10.02005 11.47334,-14.55653 3.10937,-6.39956 5.36815,-14.30173 4.3726,-15.29727 -1.78665,-1.78665 -14.92463,9.46334 -18.90405,16.18745 -4.3047,7.27374 -5.32907,5.1186 -2.94339,-6.19253 0.91177,-4.32297 1.91628,-6.3895 3.68579,-7.58261 1.33784,-0.90205 4.17436,-2.8029 6.30338,-4.2241 5.88038,-3.9254 12.51795,-10.60624 14.54367,-14.6385 2.46012,-4.89692 4.41263,-11.11835 3.70988,-11.8211 -0.31616,-0.31616 -3.55572,0.95149 -7.19903,2.817 -6.74605,3.45423 -12.72092,8.39448 -15.59171,12.89184 -1.57783,2.4718 -1.61973,2.47851 -3.71479,0.59501 -1.30289,-1.17132 -2.11896,-3.11233 -2.11896,-5.0399 0,-7.42769 -7.98608,-28.96904 -9.99499,-26.96012 -0.52608,0.52607 -1.69385,4.52194 -2.59506,8.87971 -2.65156,12.82159 -0.54004,22.20862 7.68453,34.16262 2.79232,4.05851 3.209,5.46297 3.05035,10.28164 -0.24875,7.55533 -1.097,11.26365 -2.47166,10.80543 -0.62956,-0.20985 -1.46962,-2.37119 -1.86681,-4.80297 -0.73518,-4.50116 -11.37525,-26.92142 -12.7762,-26.92142 -1.11451,0 -2.0065,6.43581 -2.01916,14.5685 -0.0186,11.94494 3.85408,21.21886 12.79514,30.64059 3.30379,3.48141 3.54844,4.2027 3.98535,11.75 0.31081,5.36908 0.10733,8.04091 -0.61239,8.04091 -0.59282,0 -2.90342,-3.4875 -5.13467,-7.75 -3.8828,-7.41758 -13.72287,-21.04716 -15.29443,-21.18447 -1.14791,-0.1003 -0.83354,6.57428 0.72027,15.29242 1.96685,11.03557 5.529,17.4372 14.38258,25.84723 7.91178,7.51542 9.07594,9.99797 9.04804,19.29482 l -0.012,4 -2.19444,-2.90779 c -4.4754,-5.93021 -11.36337,-13.45854 -17.1062,-18.69651 l -5.91175,-5.39205 0.68401,5.15632 c 1.07549,8.10745 4.27879,16.26325 9.27024,23.6026 3.65223,5.37019 6.31741,7.8941 12.94434,12.25828 l 8.34516,5.49572 2.03988,6.84953 c 1.12193,3.76724 2.03988,7.46301 2.03988,8.21282 0,0.74982 -2.8125,-1.38533 -6.25,-4.74478 -3.4375,-3.35944 -10.02921,-8.68217 -14.64824,-11.82828 l -8.39823,-5.72021 0.58888,3.62884 c 0.32388,1.99586 2.25782,7.09871 4.29763,11.33966 4.87527,10.13609 11.84438,16.98015 22.17223,21.77437 4.25575,1.97553 8.41273,3.94846 9.23773,4.3843 1.39303,0.73593 9.09695,15.19638 8.47439,15.90666 -0.15401,0.17571 -3.07236,-1.73613 -6.48522,-4.24853 -6.38163,-4.69789 -24.82306,-14.0704 -25.78746,-13.106 -1.88226,1.88226 9.74435,19.50929 15.9911,24.24402 5.1412,3.89678 14.72305,8.17324 21.1442,9.43683 5.67022,1.11582 5.99573,1.35951 11.39071,8.52739 3.05452,4.0583 5.33927,7.59315 5.07721,7.85521 -0.26206,0.26206 -2.91288,-0.87293 -5.89071,-2.52221 -4.31285,-2.38868 -28.09291,-11.00619 -30.37164,-11.00619 -3.1604,0 9.33351,15.19383 16.86565,20.51029 7.26088,5.125 14.80476,7.63528 24.74642,8.23455 l 8.65466,0.5217 8.32326,8.36673 c 7.7469,7.78734 11.86743,10.2279 11.86743,7.02896 z m -68.68022,-251.42087 c 3.69275,-5.78972 6.1453,-12.30501 7.99586,-21.24136 2.67425,-12.91392 2.77078,-14 1.24434,-14 -2.40188,0 -9.69109,9.19472 -13.35585,16.84727 -3.34022,6.97486 -3.53917,7.9886 -3.92489,20 l -0.40633,12.65273 2.86533,-5 c 1.57593,-2.75 4.08762,-6.91639 5.58154,-9.25864 z m 413.25164,253.18721 c -0.86428,-0.86429 -1.57384,-1.87679 -1.57679,-2.25 -0.003,-0.37321 4.10156,-4.50357 9.12114,-9.17857 l 9.1265,-8.5 -1.1901,-9.12762 c -1.48454,-11.38589 -0.42844,-19.90764 3.82601,-30.87238 4.31312,-11.11596 6.79782,-15.01378 8.61129,-13.50874 2.63202,2.18438 4.80601,15.42547 4.29046,26.13184 -0.26159,5.4323 -0.33104,9.8769 -0.15434,9.8769 1.05863,0 7.37441,-10.85399 7.37441,-12.67331 0,-1.21 -0.89685,-5.941 -1.993,-10.51334 -2.52731,-10.54215 -2.52188,-21.12264 0.0161,-31.31335 3.66268,-14.70689 5.49777,-16.75674 8.2809,-9.25 4.36332,11.76886 5.82987,17.72828 5.89949,23.97298 0.0818,7.33831 0.79288,7.66466 3.81083,1.74901 2.74339,-5.37749 2.52821,-7.65065 -1.67649,-17.71028 -2.93465,-7.02109 -3.75606,-10.43583 -4.13469,-17.18866 -0.61285,-10.93017 1.41292,-25.29995 3.50673,-24.87494 2.35849,0.47874 11.12593,17.72897 12.64423,24.87794 l 1.36431,6.42395 1.24201,-3 c 2.92882,-7.07439 2.57953,-9.89956 -2.25006,-18.19915 -6.01049,-10.32896 -7.76838,-16.56756 -8.42779,-29.90948 -0.72827,-14.73526 0.0301,-15.20646 7.8724,-4.89137 5.49225,7.22403 8.43915,12.81939 9.37286,17.79651 0.99173,5.28638 2.11866,4.58408 3.28388,-2.04651 1.16384,-6.62272 0.94451,-7.20208 -5.96046,-15.74484 -2.55683,-3.16328 -5.82117,-8.0686 -7.25409,-10.90072 -3.29871,-6.51978 -7.27741,-24.32416 -5.77206,-25.82951 2.09887,-2.09888 13.62847,9.41882 20.86612,20.84458 1.00444,1.58567 1.20041,0.98253 1.25,-3.84706 l 0.0588,-5.72754 -7.60324,-7.27246 c -8.66195,-8.28511 -11.38718,-12.45384 -14.90731,-22.80346 -3.83903,-11.28722 -3.29921,-12.97248 2.80104,-8.74458 9.01761,6.24983 13.83024,10.25867 15.74487,13.11522 l 2.11827,3.16037 -0.6368,-5.44255 c -0.7675,-6.55955 -0.82002,-6.65402 -4.83025,-8.68755 -5.53496,-2.80671 -12.32885,-8.43879 -15.96695,-13.23648 -4.38703,-5.78533 -9.22723,-17.02582 -7.90203,-18.35102 1.46857,-1.46858 16.0662,6.09558 20.41864,10.58047 5.21856,5.37736 4.70347,2.54345 -1.2519,-6.88766 -2.75861,-4.36863 -5.87993,-10.25296 -6.93628,-13.07629 -2.10119,-5.61593 -5.04806,-19.92362 -5.04806,-24.50939 0,-4.52822 3.12266,-3.63321 8.23555,2.36047 8.1162,9.51436 11.72271,19.32131 11.83473,32.1815 0.0859,9.85636 1.34158,14.14291 2.36361,8.0685 1.65174,-9.81699 7.79033,-25.5 9.98112,-25.5 1.53267,0 4.49765,9.75363 5.28551,17.38726 0.91262,8.84247 -3.68759,22.38151 -9.95774,29.30696 -1.63777,1.80892 -1.86664,2.99418 -1.30342,6.75 0.83026,5.53658 1.99857,5.79544 3.6366,0.80578 0.67709,-2.0625 2.2256,-5.3313 3.44112,-7.264 1.21552,-1.9327 3.40402,-5.8702 4.86332,-8.75 2.66287,-5.25492 4.88104,-6.60303 6.01261,-3.65421 0.33384,0.86998 0.60699,6.4781 0.60699,12.46248 0,13.10122 -1.80227,18.84455 -8.81241,28.08269 -2.57818,3.39759 -5.27517,6.96404 -5.99331,7.92545 -0.80357,1.07576 -1.18815,3.80547 -1,7.09781 l 0.30572,5.34978 1.79801,-3.98704 c 2.42076,-5.36795 15.62265,-22.51296 17.33528,-22.51296 2.0608,0 1.73086,12.96604 -0.55375,21.76178 -2.36142,9.09148 -6.56113,15.69997 -14.63095,23.02266 -5.65311,5.12973 -6.39565,6.2578 -7.24446,11.00583 -0.52016,2.90964 -0.62732,5.15964 -0.23814,5 0.38919,-0.15965 2.70898,-2.54027 5.1551,-5.29027 6.76814,-7.60895 17.39493,-17.5 18.80173,-17.5 1.3874,0 0.90453,4.28302 -1.57836,14 -3.34271,13.08193 -11.94932,24.3737 -23.58131,30.93839 -4.98377,2.81267 -5.83761,3.76971 -7.30515,8.18805 -0.91398,2.75172 -1.46459,5.2003 -1.2236,5.4413 0.241,0.241 2.19935,-1.12555 4.35189,-3.03677 6.63486,-5.89104 22.85107,-16.47744 23.79973,-15.53714 1.91053,1.8937 -6.10427,20.78232 -11.69764,27.56804 -3.89624,4.72681 -13.27667,10.82202 -20.00153,12.99655 -2.85277,0.92247 -5.78137,2.23479 -6.508,2.91626 -1.63103,1.52967 -6.33714,11.52532 -5.42629,11.52532 0.3633,0 3.1551,-1.74662 6.20399,-3.88137 8.1804,-5.72769 25.00377,-13.38561 25.65843,-11.67959 0.86391,2.25133 -6.1716,14.91465 -11.56485,20.81573 -7.96795,8.7182 -12.9432,11.42853 -28.78048,15.67851 -3.18852,0.85565 -5.09959,2.27364 -7.7599,5.75774 -1.94125,2.54238 -3.3234,4.82866 -3.07144,5.08062 0.25196,0.25196 3.74391,-0.90202 7.7599,-2.56441 11.79106,-4.88082 24.85195,-8.55706 26.07087,-7.33815 2.50376,2.50376 -13.29946,20.08566 -22.03042,24.50998 -7.02146,3.55804 -15.38483,5.62094 -22.78835,5.62094 h -6.12948 l -9.65717,9 c -5.31145,4.95 -9.85149,9 -10.08899,9 -0.2375,0 -1.13896,-0.70714 -2.00325,-1.57143 z m 4.55613,-2.08894 c 0.75485,-0.9132 4.7806,-4.66577 8.94611,-8.33902 l 7.57367,-6.67866 8.42633,-0.61083 c 9.06639,-0.65722 18.06183,-3.30216 23.21501,-6.82593 7.37281,-5.04156 19.8405,-19.08935 18.30498,-20.62487 -1.47406,-1.47406 -25.83339,7.00849 -32.93813,11.46991 -2.11447,1.32778 -4.08649,2.17214 -4.38227,1.87636 -0.29578,-0.29579 2.05973,-3.92908 5.23448,-8.07399 4.51265,-5.89167 6.56004,-7.7474 9.38227,-8.50401 1.9855,-0.53228 6.14002,-1.65234 9.23227,-2.489 7.49031,-2.02663 17.11453,-8.60182 21.82816,-14.91284 4.18258,-5.59999 9.34486,-15.28952 8.85652,-16.62356 -0.5887,-1.60816 -22.26291,9.80969 -27.60449,14.54189 -2.91364,2.58125 -5.59305,4.39767 -5.95423,4.03649 -0.36118,-0.36118 1.2115,-4.42359 3.49484,-9.02757 4.10204,-8.27109 4.22069,-8.39671 9.95422,-10.5392 16.8812,-6.3081 24.72272,-14.37904 30.83985,-31.74209 1.01289,-2.87501 1.56389,-5.50501 1.22444,-5.84446 -1.1292,-1.1292 -20.52514,12.47718 -24.62713,17.2761 -2.22125,2.59864 -4.2633,4.50014 -4.53789,4.22555 -0.27459,-0.27459 0.6045,-4.08365 1.95353,-8.46458 2.45015,-7.95677 2.45931,-7.96908 8.53353,-11.46107 11.94396,-6.86645 19.78072,-17.49323 23.43964,-31.78455 2.92903,-11.44047 2.10846,-11.60286 -8.1308,-1.60898 -5.00914,4.8891 -10.57411,11.27431 -12.36659,14.18936 -1.79248,2.91504 -3.50421,5.05491 -3.80386,4.75527 -0.65016,-0.65016 1.74221,-14.34586 2.91784,-16.70387 0.45204,-0.90669 3.80086,-4.50669 7.44182,-8 7.55775,-7.25128 10.98911,-12.55668 12.99192,-20.08749 1.92236,-7.2283 3.01327,-20.76399 1.67347,-20.76399 -1.83332,0 -13.88901,16.69012 -16.24034,22.48343 -1.249,3.07734 -2.77397,5.42116 -3.38882,5.20849 -1.46796,-0.50777 -0.86466,-14.6086 0.71901,-16.80508 0.63969,-0.88724 3.30073,-4.26224 5.9134,-7.5 6.81393,-8.44418 8.89858,-15.38478 8.53616,-28.42024 -0.15974,-5.74573 -0.72886,-10.43659 -1.28647,-10.6035 -1.46911,-0.43975 -9.67901,14.8046 -12.01374,22.30743 -1.10756,3.5592 -2.45756,6.45312 -3,6.43094 -0.54245,-0.0222 -1.29634,-2.7527 -1.67532,-6.06779 -0.37898,-3.31509 -0.95402,-6.45616 -1.27786,-6.98015 -0.32384,-0.52399 1.39684,-3.85304 3.82374,-7.39789 6.36501,-9.29705 7.99307,-14.94112 7.36025,-25.51606 -0.55057,-9.20042 -2.2725,-16.53238 -3.67858,-15.66337 -1.93891,1.19831 -7.11438,15.92469 -8.10848,23.072 -0.68477,4.92328 -1.73535,8.39984 -2.92386,9.67556 -1.83678,1.97155 -1.89063,1.94165 -5.4657,-3.03457 -1.98585,-2.76416 -5.73234,-6.37209 -8.32554,-8.01762 -5.32131,-3.37666 -12.28056,-6.43927 -12.99918,-5.72065 -1.0001,1.0001 4.28231,11.99954 8.05448,16.7717 2.25412,2.85167 7.29658,7.15573 11.77407,10.0499 l 7.83146,5.06213 1.14077,6.76327 c 0.62743,3.7198 0.99289,7.807 0.81213,9.08267 -0.27636,1.95042 -0.83701,1.42241 -3.52426,-3.31909 -3.15226,-5.56198 -8.22287,-10.37873 -15.55438,-14.77565 l -3.75,-2.24898 v 2.1131 c 0,3.90247 4.08243,14.50468 7.55525,19.62125 1.89313,2.78918 6.36766,7.65574 9.9434,10.81458 l 6.50135,5.74334 v 8.43542 c 0,4.63949 -0.34409,8.43543 -0.76465,8.43543 -0.42055,0 -2.18154,-3.04121 -3.91331,-6.75825 -2.30162,-4.94016 -4.9856,-8.50465 -9.97697,-13.25 -6.13242,-5.83018 -6.86167,-6.26284 -7.15574,-4.24554 -0.57056,3.91398 2.93602,17.53777 6.03106,23.43188 1.63988,3.12295 4.97143,8.00923 7.40344,10.8584 6.53906,7.66071 6.71771,8.18118 5.4019,15.73715 -1.27484,7.32063 -2.64495,10.57973 -4.07591,9.69535 -0.5224,-0.32286 -0.94982,-1.89474 -0.94982,-3.49306 0,-1.59832 -0.72269,-5.05926 -1.60597,-7.69098 -1.89971,-5.66014 -12.23903,-20.49878 -13.6679,-19.61569 -1.37214,0.84803 -0.0395,18.87578 1.88839,25.54516 0.84032,2.90707 3.8008,9.26383 6.57884,14.12614 l 5.05099,8.84056 -2.87218,8.60441 c -1.57969,4.73242 -3.32217,8.74159 -3.87217,8.90925 -0.58186,0.17737 -1.06366,-2.30849 -1.15224,-5.94497 -0.0837,-3.4374 -0.92391,-8.49981 -1.86709,-11.24981 -1.83504,-5.35042 -8.52733,-17.44908 -9.6694,-17.48085 -1.25175,-0.0348 -2.31199,9.32024 -2.2645,19.98085 0.0448,10.04861 0.2305,10.94021 4.32054,20.74007 2.96157,7.09601 4.06136,10.93395 3.58197,12.5 -0.906,2.95969 -7.36162,14.58772 -8.48383,15.28128 -0.4872,0.30111 -0.61472,-3.1167 -0.28882,-7.7411 0.60166,-8.5371 -1.10891,-17.46943 -5.21802,-27.24782 -1.47286,-3.50494 -1.81059,-3.77156 -2.89646,-2.28655 -0.67605,0.92456 -2.2651,6.24987 -3.5312,11.83403 -2.67815,11.81193 -2.4594,19.54892 0.92668,32.77613 l 2.1391,8.35605 -4.08853,6.27531 c -4.44617,6.82425 -7.64573,10.2084 -8.67678,9.17736 -0.36097,-0.36097 -0.0869,-1.89571 0.6091,-3.41054 2.16357,-4.70912 2.47768,-16.94415 0.66053,-25.72848 -0.90726,-4.38584 -2.05416,-8.37884 -2.54865,-8.87334 -1.20487,-1.20487 -6.27899,8.99083 -9.10525,18.29568 -2.02077,6.65294 -2.18087,8.70511 -1.62996,20.89303 l 0.61091,13.51543 -8.46405,7.96268 c -8.06796,7.59005 -10.1186,10.68078 -7.0865,10.68078 0.75766,0 1.99516,-0.74717 2.75,-1.66037 z m 70.84236,-260.83963 c -0.63759,-3.3 -2.22676,-8.25 -3.53148,-11 -2.82557,-5.95556 -11.35096,-15.98747 -12.55951,-14.77892 -1.1514,1.1514 1.39697,16.26671 4.07669,24.18034 1.19221,3.52078 4.50242,10.0457 7.35602,14.49982 l 5.18837,8.09841 0.31458,-7.49983 c 0.17303,-4.1249 -0.20708,-10.19982 -0.84467,-13.49982 z m -467.46991,-43.32291 c -14.80677,-8.92376 -18.5,-11.47008 -18.5,-12.7549 0,-2.61307 7.39131,-13.57319 10.09713,-14.97242 5.37278,-2.77838 11.65412,-1.12405 15.81457,4.16511 2.52379,3.20848 2.75236,9.20028 0.51594,13.52504 -1.87499,3.62583 -1.34726,5.48395 1.98928,7.00418 3.11858,1.42092 3.8938,3.38549 2.32631,5.89543 -1.78493,2.85814 -3.36388,2.48899 -12.24323,-2.86244 z m 11.31955,1.06269 c 0.17575,-1.23188 -0.0493,-2.24202 -0.5,-2.24475 -0.45076,-0.003 -2.10737,-1.03549 -3.68136,-2.29502 l -2.86181,-2.29005 2.11181,-3.94017 c 2.82606,-5.27281 2.70572,-9.61051 -0.36795,-13.26336 -3.39087,-4.02982 -7.73849,-5.71465 -11.80354,-4.57421 -2.40993,0.6761 -4.28264,2.52019 -7.4667,7.35261 -2.3375,3.5476 -4.25,6.75329 -4.25,7.12374 0,0.60613 5.09085,3.99186 20.41101,13.57457 5.79608,3.62544 7.95036,3.76805 8.40854,0.55664 z m -17.55645,-12.55193 c -3.77541,-2.55184 -4.05106,-4.41641 -1.19052,-8.05299 2.60282,-3.30896 5.30678,-3.34641 8.53497,-0.11821 2.70068,2.70067 2.58489,5.356 -0.38082,8.73335 -1.9495,2.22008 -2.96912,2.13777 -6.96363,-0.56215 z m 7.39278,-2.45293 c 0.69651,-2.77509 -0.31901,-5.00749 -3.03331,-6.66809 -1.40647,-0.86048 -2.2156,-0.52412 -4.18317,1.73893 -3.13371,3.60435 -3.07924,4.09272 0.72517,6.5015 3.73981,2.36788 5.61647,1.91332 6.49131,-1.57234 z m 415.54412,-1.43492 c -1.7442,-1.7442 -1.52181,-3.32023 1.85789,-13.16604 1.67385,-4.87632 2.8899,-9.0195 2.70232,-9.20708 -0.18757,-0.18757 -2.79786,1.64748 -5.80063,4.0779 -5.92166,4.79294 -9.30425,5.58824 -10.92081,2.56766 -1.43916,-2.68909 -0.64819,-3.98446 5.28029,-8.64755 13.99288,-11.00622 19.90281,-14.7746 21.55217,-13.74245 2.53431,1.58594 2.42736,6.15158 -0.3335,14.23638 -1.39338,4.08035 -2.37528,7.57697 -2.18199,7.77026 0.19329,0.19329 2.97098,-1.68268 6.17264,-4.16882 3.20166,-2.48615 6.16703,-4.52026 6.5897,-4.52026 1.03474,0 3.88192,4.14329 3.88192,5.64907 0,1.75228 -24.42862,20.35093 -26.73018,20.35093 -0.4784,0 -1.40982,-0.54 -2.06982,-1.2 z m 8.81334,-4.45931 c 3.01766,-2.01262 6.88978,-4.82512 8.60472,-6.25 1.71493,-1.42488 4.75633,-3.85049 6.75866,-5.39024 3.07515,-2.36472 3.47848,-3.10249 2.59676,-4.75 -1.48581,-2.77626 -2.44056,-2.50184 -8.87017,2.54955 -5.18733,4.07539 -8.10331,5.48599 -8.10331,3.91996 0,-0.31902 1.35,-4.40488 3,-9.07968 5.42191,-15.36144 3.78106,-16.97065 -8.1932,-8.03518 -13.56495,10.12247 -15.80674,12.10466 -15.80677,13.97628 -6e-5,3.62367 3.02946,2.93528 9.68129,-2.19986 3.66261,-2.8275 7.02652,-4.77368 7.47535,-4.32485 0.44883,0.44883 -0.77263,5.26101 -2.71436,10.69372 -4.90581,13.72587 -3.95479,15.24352 5.57103,8.8903 z m -406.07872,0.37771 c -1.41096,-1.22012 -6.69177,-5.58894 -11.73514,-9.70848 -5.04337,-4.11954 -9.4103,-8.11692 -9.7043,-8.88307 -0.74701,-1.94669 6.89308,-11.75915 10.68094,-13.71793 6.34225,-3.2797 13.71872,0.0486 16.44957,7.42219 0.95104,2.56789 1.83033,4.8124 1.95398,4.9878 0.12365,0.17541 2.40107,0.63022 5.06094,1.01069 5.50727,0.78779 6.69794,2.83184 3.50781,6.02197 -1.68034,1.68034 -2.88146,1.8923 -8.06148,1.4226 -5.62603,-0.51015 -6.08694,-0.3987 -6.08694,1.47193 0,1.11313 1.125,2.76101 2.5,3.66194 2.85024,1.86755 3.2277,4.7214 0.92857,7.02053 -2.01239,2.01239 -2.40411,1.96176 -5.49395,-0.71017 z m 5.50503,-1.42175 c 0.44237,-1.15278 -0.33111,-2.62367 -2.39301,-4.55068 -5.51314,-5.15249 -3.74372,-7.31879 5.63511,-6.89907 5.28308,0.23642 6.3344,-0.009 7.23169,-1.68517 1.21042,-2.26169 -0.19122,-3.16173 -4.9238,-3.16173 -3.43701,0 -5.98964,-2.31693 -5.98964,-5.43657 0,-5.27494 -7.69462,-10.43113 -13.42147,-8.99379 -2.96628,0.74449 -11.57853,10.04708 -11.57853,12.50665 0,1.58049 3.38587,4.72183 16.0072,14.85112 6.79295,5.4517 8.41149,6.02984 9.43245,3.36924 z m -14.90486,-15.40024 c -1.94414,-1.70698 -3.53479,-3.65354 -3.53479,-4.32569 0,-1.88644 4.39155,-5.57072 6.64013,-5.57072 2.19993,0 6.35987,3.86573 6.35987,5.91008 0,1.65185 -3.86061,7.08992 -5.0333,7.08992 -0.49341,0 -2.48777,-1.39662 -4.43191,-3.10359 z m 7.01322,-1.32935 c 3.38396,-5.16457 -2.85301,-9.71661 -7.26631,-5.30331 l -2.47556,2.47556 2.83671,2.63034 c 3.51643,3.26063 4.87266,3.2994 6.90516,0.19741 z m 374.29715,-8.60917 c -3.41017,-3.58483 -3.84516,-4.6086 -3.84516,-9.04966 0,-5.48602 1.80767,-9.87794 5.86416,-14.24751 3.82564,-4.12091 7.37584,-5.66072 13.05138,-5.66072 4.16438,0 5.60399,0.51726 8.4886,3.04998 11.67726,10.25277 2.30232,29.95002 -14.25476,29.95002 -5.07753,0 -5.72779,-0.2825 -9.30422,-4.04211 z m 19.66784,-0.40001 c 5.20737,-3.97186 7.47883,-8.17816 7.48326,-13.85754 0.007,-8.74955 -4.61817,-13.70034 -12.79872,-13.70034 -4.55961,0 -9.13393,2.78762 -13.52163,8.24016 -2.2966,2.85395 -3.11789,5.04434 -3.46618,9.24429 -0.44408,5.35503 -0.3446,5.61598 3.67262,9.6332 4.00325,4.00325 4.29428,4.11536 9.55122,3.67941 3.92641,-0.3256 6.43104,-1.21916 9.07943,-3.23918 z m -15.51858,-5.2921 c -3.71288,-4.72017 -0.9002,-11.61911 6.16152,-15.11297 10.45128,-5.17088 15.94049,5.68408 7.26264,14.36193 -4.60139,4.6014 -10.15123,4.91189 -13.42416,0.75104 z m 11.4919,-0.43368 c 6.94391,-5.46209 6.48635,-14.04377 -0.78083,-14.6447 -3.19225,-0.26397 -4.31894,0.22604 -7.2429,3.15 -7.93248,7.93248 -0.67155,18.33441 8.02373,11.4947 z m -373.02029,7.82235 c -3.76129,-1.70615 -9.00761,-6.86727 -11.10655,-10.92617 -2.03188,-3.92924 -1.35431,-11.90085 1.32197,-15.55277 6.65069,-9.07524 18.57493,-7.57233 26.94052,3.39552 5.14891,6.75056 3.86442,16.86624 -2.75774,21.71784 -3.37371,2.4717 -10.47496,3.1452 -14.3982,1.36558 z m 13.51052,-2.44288 c 4.03643,-2.94423 6.19367,-8.25669 5.42144,-13.35095 -0.53132,-3.50506 -1.68119,-5.36263 -5.86066,-9.46766 -5.99986,-5.89299 -10.42046,-7.30429 -15.81676,-5.04957 -5.57352,2.32876 -7.72057,5.9617 -7.72057,13.06362 0,5.42067 0.37123,6.58767 3.17926,9.99429 5.95844,7.22863 14.70752,9.25223 20.79729,4.81027 z m -12.60984,-5.12963 c -4.25354,-2.59369 -6.36671,-5.8697 -6.36671,-9.87019 0,-4.58005 1.39725,-6.80598 5.07756,-8.08894 3.44305,-1.20026 5.67376,-0.45752 9.76745,3.25215 5.51736,4.9998 6.26467,10.58166 1.95432,14.59736 -2.72642,2.54005 -6.38378,2.57848 -10.43262,0.10962 z m 9.41078,-0.63865 c 3.67864,-2.57661 3.04164,-8.0201 -1.48044,-12.65113 -4.24278,-4.345 -8.12788,-4.96133 -11.29705,-1.79216 -2.79429,2.79428 -2.52567,7.22182 0.66843,11.01781 4.15695,4.94025 8.28087,6.10685 12.10906,3.42548 z m 331.16001,-8.50579 c -1.13438,-1.13438 -1.92188,-2.43434 -1.75,-2.88882 0.79293,-2.09667 20.37996,-25.04868 21.37631,-25.04868 1.45751,0 4.43619,3.29264 4.43619,4.90377 0,1.50865 -19.83594,25.09623 -21.10464,25.09623 -0.49245,0 -1.82349,-0.92813 -2.95786,-2.0625 z m 13.51341,-11.1875 c 5.25015,-6.1875 9.54649,-11.79667 9.54741,-12.46482 9.2e-4,-0.66815 -0.83537,-1.66279 -1.85843,-2.21031 -1.59706,-0.85472 -3.11731,0.50837 -10.75,9.63875 -10.36504,12.39885 -10.73422,12.9467 -10.00496,14.84712 1.17381,3.0589 3.85273,1.04741 13.06598,-9.81074 z m -329.63145,8.53833 c -1.68908,-2.84225 -9.71521,-13.07538 -15.02527,-19.15687 l -2.94125,-3.36854 2.82353,-2.95049 c 4.4986,-4.7009 11.38152,-8.81278 14.74497,-8.80869 7.07636,0.009 13.38391,7.64604 12.22296,14.80009 -0.35942,2.21489 -1.96289,4.96209 -4.28309,7.33819 l -3.70859,3.79794 1.90909,3.54497 c 1.46206,2.71488 1.65443,3.95125 0.82151,5.28002 -1.77849,2.83727 -4.72149,2.62357 -6.56386,-0.47662 z m 5.57563,-0.55291 c 0.79561,-1.2613 0.52041,-2.19646 -1.17856,-4.00493 -1.21909,-1.29767 -2.21579,-2.78039 -2.21489,-3.29494 9e-4,-0.51455 1.75734,-2.58748 3.90318,-4.6065 4.68103,-4.40437 5.77008,-8.27803 3.71205,-13.20356 -1.59092,-3.80761 -6.71344,-7.61556 -10.25292,-7.62175 -2.37555,-0.004 -14.25484,7.54834 -15.02353,9.5515 -0.26938,0.70201 3.13329,5.82418 7.5615,11.3826 4.42821,5.55842 8.54228,11.02365 9.14239,12.14495 1.21285,2.26625 2.78113,2.14104 4.35078,-0.34737 z m -10.8442,-17.07981 c -3.13024,-4.10396 -3.15046,-4.74372 -0.23644,-7.4813 3.0166,-2.83394 7.12531,-2.81225 9.12884,0.0482 2.08834,2.98152 1.96083,4.99402 -0.51587,8.14264 -2.77866,3.53249 -5.30415,3.31857 -8.37653,-0.70953 z m 6.51485,1.3092 c 1.30599,-0.69894 1.93426,-2.09562 1.93426,-4.3 0,-5.61503 -4.15197,-7.51285 -8.00556,-3.65926 l -2.00555,2.00555 2.25555,3.48207 c 2.46354,3.80315 2.94856,4.00909 5.8213,2.47164 z m 300.58924,7.20645 c -0.91024,-1.00581 -1.65498,-2.13577 -1.65498,-2.51104 0,-0.37526 3.15,-4.94736 7,-10.16022 3.85,-5.21286 7,-9.8035 7,-10.2014 0,-0.39791 -1.22222,-1.69804 -2.71605,-2.88917 -2.44469,-1.94933 -2.59669,-2.42764 -1.52143,-4.78756 0.68989,-1.51416 2.01205,-2.62187 3.12944,-2.62187 1.84197,0 17.15272,10.64524 18.5406,12.89089 0.86408,1.39811 -0.9391,4.70577 -2.99557,5.49491 -0.90137,0.34589 -2.86855,-0.26897 -4.43956,-1.38763 l -2.82101,-2.00873 -2.90889,3.75528 c -1.59989,2.0654 -4.85479,6.56778 -7.23311,10.00528 -4.52519,6.54048 -6.5835,7.51073 -9.37944,4.42126 z m 10.95003,-8.78288 c 3.74725,-5.2864 7.41084,-9.84097 8.14133,-10.12129 0.73048,-0.28031 2.1779,0.25937 3.2165,1.19928 2.38006,2.15393 5.46121,1.63341 5.7808,-0.97659 0.17854,-1.45805 -1.85851,-3.52637 -7.62274,-7.73978 -4.32652,-3.1625 -8.35782,-5.75 -8.95846,-5.75 -0.60064,0 -1.55675,0.86825 -2.12468,1.92944 -0.83806,1.56592 -0.56207,2.29958 1.46481,3.89392 1.37358,1.08047 2.49743,2.58596 2.49743,3.34554 0,0.75959 -3.11419,5.64482 -6.92042,10.85608 -6.39977,8.76219 -6.80189,9.60668 -5.34501,11.22502 0.86647,0.9625 1.90882,1.75 2.31633,1.75 0.40751,0 3.80686,-4.32523 7.55411,-9.61162 z m -289.84844,2.86162 c -2.51644,-2.83492 -15.75675,-25.08523 -15.75463,-26.47561 0.003,-1.63534 14.29487,-10.77439 16.84986,-10.77439 1.91189,0 3.1482,1.80793 3.1482,4.60381 0,0.79213 -2.1375,2.7958 -4.75,4.4526 -2.6125,1.6568 -4.705,3.44689 -4.65,3.97797 0.27069,2.6139 0.5259,2.96514 2.15,2.95903 0.9625,-0.004 3.1,-0.90066 4.75,-1.99341 3.79042,-2.5103 6.14542,-2.53104 7.46481,-0.0657 1.6496,3.0823 1.30031,3.78724 -3.51958,7.10341 -4.56616,3.14161 -5.08929,4.5227 -2.36423,6.24163 1.03231,0.65116 3.03181,-0.0537 6.8034,-2.39822 l 5.34143,-3.32042 1.91995,2.37105 c 1.05598,1.30408 1.77073,2.86543 1.58833,3.46967 -0.35032,1.16051 -15.33861,11.59862 -16.6547,11.59862 -0.42319,0 -1.46847,-0.7875 -2.32284,-1.75 z m 10.38838,-4.48006 c 4.37082,-2.69711 6.85505,-4.88285 6.85505,-6.03139 0,-3.16714 -2.92299,-3.08538 -8.25794,0.23101 l -5.17341,3.21597 -1.78433,-2.20355 c -2.47085,-3.05137 -2.23805,-4.65365 0.96568,-6.64642 5.37862,-3.34558 6.26126,-4.446 5.18263,-6.46143 -1.3247,-2.47522 -2.22066,-2.37367 -7.00783,0.79433 l -4.03232,2.66846 -2.08519,-2.08518 c -2.66091,-2.66091 -1.91622,-4.52662 3.06088,-7.66852 2.18004,-1.3762 4.22799,-2.92981 4.55101,-3.45246 0.77712,-1.25741 -0.36377,-4.13076 -1.64015,-4.13076 -1.2285,0 -15.77903,8.98915 -15.77903,9.7481 0,1.79165 15.73223,26.2519 16.88458,26.2519 0.77293,0 4.49009,-1.90353 8.26037,-4.23006 z m 257.4264,3.3089 c -1.11826,-1.23566 -1.61958,-3.10893 -1.40499,-5.25 0.30704,-3.06347 -0.0374,-3.52485 -4.3212,-5.78756 l -4.65484,-2.45872 -3.545,1.90911 c -3.34217,1.79987 -3.65249,1.81182 -5.4239,0.20872 -1.0334,-0.93522 -2.35927,-1.70039 -2.94637,-1.70039 -1.77815,0 -16.09249,-7.0751 -17.3292,-8.56525 -0.90556,-1.09113 0.21455,-4.33395 5.19998,-15.05434 3.49479,-7.51501 7.07251,-14.1165 7.95048,-14.66998 1.18059,-0.74424 3.71323,-0.1214 9.72483,2.39162 8.52071,3.5619 9.81228,5.28185 6.92816,9.22612 -1.17116,1.60166 -1.57729,1.57244 -6.38653,-0.4594 -5.52262,-2.33324 -8.36277,-2.02739 -8.36277,0.90058 0,1.18084 1.59964,2.60929 4.5,4.01839 4.7723,2.31856 5.81008,4.88009 2.94161,7.26071 -1.2945,1.07435 -2.30383,0.93119 -5.96067,-0.84545 -3.96313,-1.92544 -4.55585,-1.98524 -5.94162,-0.59947 -2.61181,2.61181 -1.73376,4.38501 3.21068,6.48383 2.6125,1.10896 5.425,2.88832 6.25,3.95414 1.66043,2.14512 1.55074,2.21326 16.69144,-10.36826 8.10577,-6.73568 9.62292,-7.35251 12.86285,-5.22962 3,1.96567 3.05184,1.03836 -1.14928,20.55638 -3.59012,16.67935 -4.77346,18.56532 -8.83366,14.07884 z m 5.4712,-4.74841 c 0.44189,-2.10674 1.73217,-8.10543 2.8673,-13.33043 2.61556,-12.03944 2.63158,-14.63987 0.0985,-15.99553 -2.11412,-1.13144 -2.32617,-0.98678 -20.9691,14.30559 -6.63442,5.44207 -7.93377,7.68994 -4.44505,7.68994 0.81189,0 2.56584,-0.71399 3.89768,-1.58664 2.28179,-1.49509 2.72695,-1.42164 7.71482,1.27288 5.10793,2.75938 5.28259,2.99351 4.98765,6.68571 -0.22204,2.77969 0.18822,4.19094 1.5,5.1598 2.27143,1.67763 3.32955,0.65525 4.3482,-4.20132 z m -8.44043,-13.21758 c -1.62924,-1.8003 -1.53283,-2.05303 2.09502,-5.49133 2.09157,-1.9823 4.14036,-3.60808 4.55286,-3.61285 1.04456,-0.0121 0.92639,2.81599 -0.30259,7.24133 -1.17688,4.23777 -3.56225,4.93807 -6.34529,1.86285 z m 5.21872,-2.36285 c 1.10924,-4.1058 0.92722,-4.28626 -2.23408,-2.21489 -2.76982,1.81485 -3.37277,3.98106 -1.33676,4.80261 2.32226,0.93705 2.69071,0.67005 3.57084,-2.58772 z m -22.82084,2.57223 c 0,-0.78808 -2.475,-2.56597 -5.5,-3.95086 -6.11985,-2.80176 -7.18761,-5.53413 -3.47545,-8.89359 1.96641,-1.77958 2.14582,-1.77062 6.24709,0.31221 3.57713,1.81664 4.43212,1.93482 5.59377,0.77317 1.8724,-1.8724 0.83791,-3.15846 -4.40683,-5.47846 -4.87419,-2.15608 -5.42567,-3.66883 -2.60666,-7.15016 l 1.85192,-2.28703 5.74338,2.33107 c 4.80397,1.94979 5.88884,2.10129 6.63276,0.92624 1.67279,-2.64223 0.86091,-3.40848 -7.16577,-6.76306 -9.18094,-3.83698 -9.2147,-3.82387 -12.50385,4.85824 -0.93763,2.475 -3.23897,7.57677 -5.11409,11.33726 -1.87512,3.7605 -3.26824,7.56982 -3.09581,8.46515 0.44332,2.30197 14.91995,9.25989 16.54954,7.95423 0.6875,-0.55084 1.25,-1.64633 1.25,-2.43441 z m -232.37879,-6.743 c -3.64167,-7.93143 -6.62121,-14.86401 -6.62121,-15.40575 0,-1.56286 12.88753,-7.17348 16.47741,-7.17348 6.5901,0 12.09966,7.18784 11.25483,14.68318 -0.46249,4.10318 -0.25998,4.54324 3.5455,7.70428 7.20439,5.98436 1.35586,9.44567 -6.70499,3.96819 -2.97646,-2.02256 -4.26553,-2.39715 -5.48213,-1.59306 -1.75145,1.15759 -1.74915,1.28076 0.11317,6.06821 1.16633,2.99828 1.10192,3.47249 -0.64519,4.75 -4.11164,3.00651 -5.06326,1.97005 -11.93739,-13.00157 z m 11.40003,11.89517 c 1.03525,-1.2474 0.93247,-2.14516 -0.56366,-4.9233 -1.52526,-2.83224 -1.61201,-3.66011 -0.52124,-4.9744 1.87442,-2.25853 4.7079,-1.94983 8.47477,0.9233 3.31664,2.52973 7.00233,3.25809 8.03462,1.58779 0.31008,-0.50171 -1.25794,-2.35503 -3.48448,-4.11848 -3.87166,-3.06641 -4.02052,-3.39126 -3.41239,-7.44658 1.0852,-7.23664 -4.1051,-14.5224 -10.34592,-14.52286 -2.93265,-2.1e-4 -14.20294,5.37886 -14.20294,6.77876 0,1.25993 7.64692,19.53768 10.65653,25.47137 1.55912,3.07392 3.46815,3.50962 5.36471,1.2244 z m -6.48365,-16.77668 c -0.82968,-1.26625 -1.78893,-3.70441 -2.13168,-5.41814 -0.54911,-2.74555 -0.25961,-3.30388 2.4358,-4.69773 3.94786,-2.04152 4.7452,-1.99494 7.15829,0.41815 3.1865,3.1865 2.62974,7.64543 -1.25,10.01096 -4.09589,2.49731 -4.38026,2.48297 -6.21241,-0.31324 z m 6.98981,-1.728 c 2.74811,-3.03663 1.00436,-7.3649 -3.13063,-7.77079 -4.50399,-0.4421 -5.88308,1.70142 -3.99773,6.21369 1.72143,4.11996 4.29938,4.68308 7.12836,1.5571 z m 192.75251,7.00662 c -1.25262,-0.50202 -2.48912,-2.10701 -2.83747,-3.68305 -1.38477,-6.2652 -2.15779,-7.79329 -3.94244,-7.79329 -1.15187,0 -2.19883,1.11513 -2.81661,3 -1.16705,3.56067 -2.25769,4.42408 -4.76133,3.76937 -4.2676,-1.11601 -4.27701,-2.73967 -0.081,-13.98295 2.21403,-5.93253 4.56971,-12.67541 5.23485,-14.98417 0.66514,-2.30875 1.82912,-4.43557 2.58663,-4.72625 2.1298,-0.81729 14.62318,4.08355 16.60013,6.51181 4.14608,5.09257 2.88798,13.1477 -2.90711,18.61317 -3.14986,2.9707 -3.39978,3.64005 -3.13896,8.40677 0.30009,5.48439 -0.3608,6.30173 -3.9367,4.86859 z m 3.14619,-3.72634 c -0.3366,-1.5125 -0.80091,-3.46004 -1.0318,-4.32786 -0.23671,-0.88968 1.29033,-3.32245 3.50125,-5.57793 4.97884,-5.07917 6.90811,-10.88347 4.97284,-14.96105 -1.49938,-3.15914 -8.43005,-7.12347 -13.98319,-7.99835 l -3.3852,-0.53333 -4.85179,14.08781 c -2.66849,7.7483 -4.59511,14.75672 -4.28139,15.57426 1.05386,2.74631 4.16025,1.68798 5.17638,-1.76355 0.80425,-2.73182 1.43511,-3.25 3.9568,-3.25 2.74325,0 3.09929,0.40224 4.16019,4.70018 1.47339,5.96901 2.01317,6.79982 4.41787,6.79982 1.61992,0 1.85384,-0.4772 1.34804,-2.75 z m -7.1761,-14.28116 c -2.67185,-1.07396 -2.79273,-2.57195 -0.64142,-7.94861 1.85433,-4.63444 5.01603,-5.39562 8.39142,-2.02023 2.67531,2.67532 2.52136,5.56954 -0.45455,8.54545 -2.62529,2.6253 -3.75628,2.84596 -7.29545,1.42339 z m 7.80972,-4.11303 c 1.19608,-2.88759 1.11533,-3.29565 -0.98946,-5 -3.38724,-2.74282 -4.67376,-2.30403 -6.47996,2.21011 -1.96778,4.91796 -1.48021,5.93408 2.84739,5.93408 2.77954,0 3.53157,-0.51158 4.62203,-3.14419 z m -173.46587,17.89419 c -6.85675,-18.54282 -7.20453,-19.25736 -9.1662,-18.83292 -5.44934,1.17905 -6.91875,0.67404 -7.22735,-2.48392 -0.33974,-3.47654 -0.0563,-3.66072 13.17283,-8.55869 8.26062,-3.05843 9.8677,-2.88553 10.92978,1.17588 0.53801,2.05736 -1.56496,4.9382 -3.62434,4.96496 -3.70949,0.0482 -3.67071,1.61219 0.31093,12.54259 4.43108,12.16421 4.72414,13.95427 2.42871,14.83511 -3.71344,1.42498 -5.25453,0.60231 -6.82436,-3.64301 z m 6.23993,2.37389 c 1.0642,-0.6746 0.5084,-3.17818 -2.75,-12.38711 -2.24608,-6.3479 -4.08378,-12.00064 -4.08378,-12.56165 0,-0.56102 1.575,-1.53982 3.5,-2.17513 2.41163,-0.79591 3.5,-1.76267 3.5,-3.10894 0,-3.33285 -2.73105,-3.25619 -12.28271,0.34479 -8.08951,3.04975 -9.21729,3.76791 -9.21729,5.86953 0,2.51307 0.80417,2.71048 5.73496,1.40787 2.3861,-0.63036 2.87017,-0.35838 3.79484,2.13211 7.90301,21.28599 8.60606,22.50569 11.80398,20.47853 z m 12.46102,-4.37389 c -1.08006,-1.42102 -8.2948,-27.64831 -8.2948,-30.15359 0,-1.87655 4.19699,-4.11853 6.24133,-3.33405 0.81865,0.31415 2.92817,6.84987 5.2482,16.26002 3.75355,15.22455 3.81852,15.77919 2.00377,17.10617 -2.33057,1.70416 -3.96649,1.74238 -5.1985,0.12145 z m 4.53599,-0.62426 c 1.07391,-0.6808 0.60541,-3.7662 -2.42717,-15.98469 -3.4638,-13.95586 -3.93517,-15.14105 -6.02178,-15.14105 -1.24509,0 -2.53357,0.43648 -2.86327,0.96995 -0.67713,1.09561 6.30892,27.84954 7.77623,29.78005 1.10962,1.4599 1.72297,1.52507 3.53599,0.37574 z m 6.71387,-3.37574 c -1.92893,-8.79566 -5.54466,-28.22666 -5.54466,-29.79709 0,-2.03368 0.0575,-2.05563 11.48525,-4.38406 7.85257,-1.59998 9.81534,-0.90976 9.3153,3.27576 -0.2548,2.13281 -1.06717,2.68758 -5.33626,3.64414 -6.45456,1.44625 -7.39181,2.07243 -6.75378,4.51224 0.57172,2.18628 1.91867,2.38609 7.43793,1.10337 4.02726,-0.93597 5.15838,-0.52084 6.19175,2.27239 0.98213,2.65473 -0.97385,4.54103 -5.45119,5.25699 -4.78917,0.76582 -6.4298,2.48725 -4.97004,5.21484 0.99126,1.8522 1.40255,1.89628 6.54306,0.70133 4.61375,-1.0725 5.80727,-1.04959 7.51164,0.1442 1.84131,1.2897 2.02634,1.22863 2.02634,-0.66879 0,-2.74175 1.98383,-3.39991 6.4942,-2.15453 2.29859,0.63467 4.58088,0.67096 6.0909,0.0968 4.22545,-1.60651 2.81084,-3.67282 -4.08563,-5.96782 -7.50848,-2.49866 -9.49947,-4.73426 -9.49947,-10.66656 0,-7.82908 7.55634,-12.57333 16.30929,-10.2398 3.51079,0.93598 3.78506,1.26596 3.5,4.21105 -0.30675,3.16916 -0.35461,3.19549 -5.80929,3.19549 -5.18011,0 -5.5,0.14346 -5.5,2.46654 0,2.1082 0.72639,2.66809 5,3.85388 8.75677,2.42973 12.01833,7.60994 9.13548,14.50957 -2.4849,5.9472 -10.51289,8.35172 -18.54063,5.55323 -2.69867,-0.94076 -3.39923,-0.84923 -4.44486,0.58076 -0.70777,0.96793 -4.66008,2.50775 -9.19563,3.58263 -10.30702,2.44264 -11.31447,2.41755 -11.9097,-0.29661 z m 19.70606,-3.60072 c 0.55816,-0.55817 0.72211,-1.77768 0.36434,-2.71003 -0.66354,-1.72915 -1.70017,-1.71763 -10.33252,0.11476 -2.83366,0.6015 -3.36398,0.36137 -4.44589,-2.01318 -1.68871,-3.70631 -0.2258,-5.65688 5.22879,-6.9718 3.4359,-0.82829 4.50652,-1.57573 4.75411,-3.31903 0.35967,-2.5325 -0.89125,-2.76607 -7.0972,-1.32522 -4.1966,0.97434 -6.72235,-0.51392 -6.72235,-3.96103 0,-2.3079 2.39402,-3.68331 7.96044,-4.57342 4.26161,-0.68146 6.14902,-2.68086 4.28773,-4.54216 -1.01866,-1.01866 -15.00039,0.76262 -17.34112,2.20927 -1.13493,0.70143 3.66519,28.36691 5.30548,30.57809 0.94861,1.27877 16.22579,-1.67386 18.03819,-3.48625 z m 18.76929,-1.65963 c 3.60928,-1.86643 4.97999,-4.31195 4.97999,-8.88495 0,-4.53581 -2.72146,-7.0985 -9.18486,-8.64905 -3.57227,-0.85697 -5.26606,-1.85121 -6.03726,-3.54379 -1.6925,-3.71464 0.45404,-5.41186 6.84456,-5.41186 4.60958,0 5.37756,-0.27034 5.37756,-1.89301 0,-2.34584 -1.87623,-3.10699 -7.65871,-3.10699 -5.86006,0 -10.34129,4.03533 -10.34129,9.31229 0,4.76511 2.55266,7.4975 8.95385,9.58427 2.98881,0.97434 5.86851,2.46004 6.39932,3.30156 2.53872,4.0247 -3.10497,7.01662 -9.12754,4.83883 -2.85935,-1.03396 -3.62434,-1.01565 -4.33278,0.1037 -2.89219,4.56968 7.50867,7.77155 14.12716,4.349 z m 66.05107,5.75879 c -4.76053,-2.42745 -7.26951,-6.25811 -7.81462,-11.93122 -1.33308,-13.8736 8.25239,-24.41147 19.46004,-21.39356 4.47208,1.20421 9.58981,6.24725 9.07142,8.93902 -0.16904,0.87779 -1.54793,2.03228 -3.0642,2.56552 -2.3076,0.81154 -2.99477,0.62983 -4.21695,-1.11507 -1.81593,-2.59259 -5.91123,-3.70223 -8.51694,-2.30769 -4.58567,2.45418 -6.47616,11.42751 -3.34834,15.8931 1.48806,2.12451 2.14389,2.28451 7.01657,1.71183 5.01903,-0.58989 5.44893,-0.46965 6.48997,1.81518 1.58854,3.48647 0.52044,5.29499 -3.84276,6.5066 -5.26004,1.46067 -7.26853,1.33843 -11.23419,-0.68371 z m 13.17892,-1.42448 c 2.08547,-1.06577 2.17468,-1.86092 0.47027,-4.19183 -1.05561,-1.44363 -1.76827,-1.56438 -4.0694,-0.6895 -6.11593,2.32528 -10.65087,-1.38532 -10.65087,-8.7148 0,-10.33146 8.37188,-15.94686 14.55562,-9.76312 2.44103,2.44103 4.85609,2.51071 5.75581,0.16608 1.26334,-3.29219 -5.36135,-7.63079 -11.65159,-7.63079 -4.32847,0 -5.33185,0.43671 -8.66768,3.77254 -9.28211,9.28211 -7.23832,25.04808 3.65039,28.15945 3.02728,0.86502 7.70219,0.3767 10.60745,-1.10803 z m -45,-3.48624 c -0.6875,-0.27741 -1.25,-1.81689 -1.25,-3.42105 0,-2.86404 -0.098,-2.91667 -5.42858,-2.91667 -6.22573,0 -9.03535,-1.88065 -8.00074,-5.35537 1.21631,-4.08497 12.71755,-21.60134 14.56932,-22.18907 2.17681,-0.69089 5.86,0.28855 5.86,1.5583 0,0.4835 -2.24994,4.39068 -4.99987,8.68262 -2.74993,4.29193 -4.99993,8.14102 -5,8.55352 -7e-5,0.4125 0.86998,0.75 1.93344,0.75 1.36599,0 2.02647,-0.80725 2.25,-2.75 0.26678,-2.31857 0.78707,-2.75 3.31643,-2.75 2.36467,0 3.06873,0.48455 3.32454,2.28808 0.17849,1.25844 1.19099,2.82918 2.25,3.49054 2.58815,1.61633 2.54273,6.32066 -0.0745,7.72138 -1.13187,0.60575 -2,2.09382 -2,3.42819 0,3.01747 -3.13433,4.36849 -6.75,2.90953 z m 5.55659,-4.48589 c 0.18737,-1.61838 1.06233,-2.8458 2.25,-3.15638 2.50468,-0.65499 2.48023,-2.89966 -0.0566,-5.19545 -1.1,-0.99549 -2,-2.61367 -2,-3.59597 0,-4.16188 -4.57337,-2.91182 -5.18997,1.41859 -0.33476,2.35102 -3.36583,3.30103 -5.70116,1.78687 -1.11314,-0.72173 -0.36378,-2.57721 3.75,-9.28541 2.82762,-4.6109 5.14113,-8.70759 5.14113,-9.10377 0,-0.39617 -1.08641,-0.72031 -2.41423,-0.72031 -2.42733,0 -3.47486,1.33067 -11.80827,15 -3.67209,6.02333 -3.68116,8.99638 -0.0275,9.011 1.5125,0.006 4.4375,0.28994 6.5,0.63085 3.01063,0.49762 3.75,1.05408 3.75,2.82232 0,2.818 0.90936,3.69296 3.45885,3.32801 1.36784,-0.1958 2.14228,-1.16573 2.34774,-2.94035 z"
         id="path101254"
         sodipodi:insensitive="true" />
      <path
         style="fill:#2b3650"
         d="m -430.59753,763.45377 c -40.33559,-2.39724 -77.66127,-11.39507 -111.88487,-26.97129 -39.14823,-17.81757 -76.8492,-46.98974 -106.57564,-82.46586 -35.02021,-41.7938 -58.56679,-95.48785 -65.97706,-150.44964 -3.15461,-23.3977 -3.1829,-57.49788 -0.0659,-79.47545 9.09165,-64.10445 37.36176,-122.69301 81.48279,-168.86952 49.73116,-52.048 115.77001,-83.42947 189.9215,-90.25014 14.33022,-1.31814 51.82577,-0.68333 65.0992,1.10215 37.40581,5.03163 77.46807,18.35007 108,35.9039 27.25478,15.66968 44.85165,29.1998 67,51.51584 31.13756,31.37332 54.66504,69.52174 69.11951,112.07322 10.81534,31.83849 15.16166,56.59021 16.07039,91.51874 0.82041,31.53394 -1.44014,51.48293 -9.34647,82.48126 -12.27037,48.10843 -38.83895,95.2457 -74.33317,131.87996 -43.83043,45.23821 -99.76784,75.80644 -158.51982,86.62665 -22.40691,4.12662 -52.35174,6.42849 -69.99044,5.38018 z m 44.5,-7.50123 c 25.3031,-2.67353 54.05938,-10.29153 81.5,-21.59064 30.09885,-12.39369 55.90219,-28.87034 81.88907,-52.29002 29.08003,-26.20726 51.32367,-55.29535 67.67963,-88.5049 12.2855,-24.94479 20.04539,-47.71771 24.87481,-73 6.72786,-35.22079 7.5978,-61.97033 3.12208,-96 -11.32052,-86.07195 -59.25879,-160.95771 -134.06559,-209.42775 -21.36107,-13.84061 -55.76536,-28.72401 -83.40733,-36.08227 -39.69812,-10.56759 -89.74948,-11.67952 -132.75521,-2.94927 -44.36565,9.00631 -92.20768,31.96179 -127.33746,61.09883 -44.12274,36.5959 -78.99329,89.49575 -94.42305,143.24307 -7.61416,26.52282 -10.93892,47.48618 -11.75491,74.11739 -1.29205,42.16794 6.09339,83.48678 21.35975,119.5 16.41228,38.71644 35.47388,67.28594 63.75543,95.55658 29.15391,29.14268 55.74734,47.79765 88.87818,62.34699 34.795,15.28016 67.47213,23.07938 106.6846,25.46297 8.22821,0.50016 33.20701,-0.34059 44,-1.48098 z m -215.86743,-115.25229 -8.32326,-8.36673 -8.65466,-0.5217 c -9.94166,-0.59927 -17.48554,-3.10955 -24.74642,-8.23455 -7.53214,-5.31646 -20.02605,-20.51029 -16.86565,-20.51029 2.27873,0 26.05879,8.61751 30.37164,11.00619 2.97783,1.64928 5.62865,2.78427 5.89071,2.52221 0.26206,-0.26206 -2.02269,-3.79691 -5.07721,-7.85521 -5.39498,-7.16788 -5.72049,-7.41157 -11.39071,-8.52739 -6.42115,-1.26359 -16.003,-5.54005 -21.1442,-9.43683 -6.24675,-4.73473 -17.87336,-22.36176 -15.9911,-24.24402 0.9644,-0.9644 19.40583,8.40811 25.78746,13.106 3.41286,2.5124 6.33121,4.42424 6.48522,4.24853 0.62256,-0.71028 -7.08136,-15.17073 -8.47439,-15.90666 -0.825,-0.43584 -4.98198,-2.40877 -9.23773,-4.3843 -10.32785,-4.79422 -17.29696,-11.63828 -22.17223,-21.77437 -2.03981,-4.24095 -3.97375,-9.3438 -4.29763,-11.33966 l -0.58888,-3.62884 8.39823,5.72021 c 4.61903,3.14611 11.21074,8.46884 14.64824,11.82828 3.4375,3.35945 6.25,5.4946 6.25,4.74478 0,-0.74981 -0.91795,-4.44558 -2.03988,-8.21282 l -2.03988,-6.84953 -8.34516,-5.49572 c -6.62693,-4.36418 -9.29211,-6.88809 -12.94434,-12.25828 -4.99145,-7.33935 -8.19475,-15.49515 -9.27024,-23.6026 l -0.68401,-5.15632 5.91175,5.39205 c 5.74283,5.23797 12.6308,12.7663 17.1062,18.69651 l 2.19444,2.90779 0.012,-4 c 0.0279,-9.29685 -1.13626,-11.7794 -9.04804,-19.29482 -8.85358,-8.41003 -12.41573,-14.81166 -14.38258,-25.84723 -1.55381,-8.71814 -1.86818,-15.39272 -0.72027,-15.29242 1.57156,0.13731 11.41163,13.76689 15.29443,21.18447 2.23125,4.2625 4.54185,7.75 5.13467,7.75 0.71972,0 0.9232,-2.67183 0.61239,-8.04091 -0.43691,-7.5473 -0.68156,-8.26859 -3.98535,-11.75 -8.94106,-9.42173 -12.81374,-18.69565 -12.79514,-30.64059 0.0127,-8.13269 0.90465,-14.5685 2.01916,-14.5685 1.40095,0 12.04102,22.42026 12.7762,26.92142 0.39719,2.43178 1.23725,4.59312 1.86681,4.80297 1.37466,0.45822 2.22291,-3.2501 2.47166,-10.80543 0.15865,-4.81867 -0.25803,-6.22313 -3.05035,-10.28164 -8.22457,-11.954 -10.33609,-21.34103 -7.68453,-34.16262 0.90121,-4.35777 2.06898,-8.35364 2.59506,-8.87971 2.00891,-2.00892 9.99499,19.53243 9.99499,26.96012 0,1.92757 0.81607,3.86858 2.11896,5.0399 2.09506,1.8835 2.13696,1.87679 3.71479,-0.59501 2.87079,-4.49736 8.84566,-9.43761 15.59171,-12.89184 3.64331,-1.86551 6.88287,-3.13316 7.19903,-2.817 0.70275,0.70275 -1.24976,6.92418 -3.70988,11.8211 -2.02572,4.03226 -8.66329,10.7131 -14.54367,14.6385 -2.12902,1.4212 -4.96554,3.32205 -6.30338,4.2241 -1.76951,1.19311 -2.77402,3.25964 -3.68579,7.58261 -2.38568,11.31113 -1.36131,13.46627 2.94339,6.19253 3.97942,-6.72411 17.1174,-17.9741 18.90405,-16.18745 0.99555,0.99554 -1.26323,8.89771 -4.3726,15.29727 -2.20415,4.53648 -5.49353,8.7098 -11.47334,14.55653 l -8.38327,8.19671 v 7.63445 c 0,4.19895 0.42246,7.89555 0.9388,8.21467 0.51634,0.31911 2.35871,-2.39495 4.09416,-6.03124 3.18151,-6.66626 15.11492,-20.59657 16.48319,-19.24144 1.27368,1.26145 -1.48116,17.05527 -3.87592,22.22109 -2.06093,4.4457 -6.41404,10.70264 -13.66762,19.64516 -1.92015,2.36723 -1.99291,3.06795 -0.98646,9.5 1.32134,8.44445 1.89449,10.44425 2.99334,10.44425 0.46459,0 1.14079,-1.7525 1.50267,-3.89444 1.29028,-7.63709 12.61446,-27.10556 15.76643,-27.10556 1.57579,0 0.24308,20.74023 -1.67595,26.08186 -0.90533,2.52002 -4.04683,8.51122 -6.9811,13.31377 l -5.33504,8.73192 2.23684,7.24988 c 1.23026,3.98744 2.85176,8.34624 3.60335,9.68622 1.27774,2.27808 1.4103,1.94913 2.04048,-5.06365 0.37069,-4.125 1.37503,-9.42249 2.23187,-11.7722 2.37394,-6.51001 8.78409,-17.47927 9.6719,-16.55087 0.43289,0.45269 1.28923,5.02057 1.90297,10.15085 1.40178,11.71762 0.32495,18.27926 -5.08835,31.00577 l -3.97009,9.33356 3.70494,7.89511 c 3.4754,7.40595 6.78216,11.89854 7.92023,10.76047 0.2741,-0.27411 -0.008,-1.95229 -0.62793,-3.72929 -2.37298,-6.80713 0.46422,-25.00938 5.38064,-34.51984 0.94097,-1.82023 1.07147,-1.78214 2.36731,0.69105 1.93001,3.68356 5.35041,18.4544 5.38049,23.23539 0.0138,2.2 -1.1857,9.47438 -2.66564,16.16529 l -2.69081,12.16529 4.21281,6.46607 c 2.31704,3.55633 5.16019,7.30695 6.31812,8.3347 2.09538,1.85984 2.10225,1.8545 1.45689,-1.13135 -2.79531,-12.93271 -2.90885,-17.72592 -0.65144,-27.5 0.44459,-1.925 1.08705,-4.7375 1.42769,-6.25 0.34063,-1.5125 0.98979,-2.75 1.44258,-2.75 1.18321,0 7.70896,14.43285 9.71575,21.4881 1.40175,4.92814 1.58628,8.31895 1.04242,19.1558 l -0.66083,13.1677 8.52065,7.75643 c 4.68636,4.26604 8.52066,8.35843 8.52066,9.0942 0,3.19894 -4.12053,0.75838 -11.86743,-7.02896 z m 356.86743,7.00768 c 0,-0.74747 3.80882,-4.94225 8.46405,-9.32173 l 8.46405,-7.96268 -0.61091,-13.51543 c -0.55091,-12.18792 -0.39081,-14.24009 1.62996,-20.89303 2.82626,-9.30485 7.90038,-19.50055 9.10525,-18.29568 0.49449,0.4945 1.64139,4.4875 2.54865,8.87334 1.81715,8.78433 1.50304,21.01936 -0.66053,25.72848 -0.69597,1.51483 -0.97007,3.04957 -0.6091,3.41054 1.03105,1.03104 4.23061,-2.35311 8.67678,-9.17736 l 4.08853,-6.27531 -2.1391,-8.35605 c -3.38608,-13.22721 -3.60483,-20.9642 -0.92668,-32.77613 1.2661,-5.58416 2.85515,-10.90947 3.5312,-11.83403 1.08587,-1.48501 1.4236,-1.21839 2.89646,2.28655 4.10911,9.77839 5.81968,18.71072 5.21802,27.24782 -0.3259,4.6244 -0.19838,8.04221 0.28882,7.7411 1.12221,-0.69356 7.57783,-12.32159 8.48383,-15.28128 0.47939,-1.56605 -0.6204,-5.40399 -3.58197,-12.5 -4.09004,-9.79986 -4.27578,-10.69146 -4.32054,-20.74007 -0.0475,-10.66061 1.01275,-20.01566 2.2645,-19.98085 1.14207,0.0318 7.83436,12.13043 9.6694,17.48085 0.94318,2.75 1.78337,7.81241 1.86709,11.24981 0.0886,3.63648 0.57038,6.12234 1.15224,5.94497 0.55,-0.16766 2.29248,-4.17683 3.87217,-8.90925 l 2.87218,-8.60441 -5.05099,-8.84056 c -2.77804,-4.86231 -5.73852,-11.21907 -6.57884,-14.12614 -1.92786,-6.66938 -3.26053,-24.69713 -1.88839,-25.54516 1.42887,-0.88309 11.76819,13.95555 13.6679,19.61569 0.88328,2.63172 1.60597,6.09266 1.60597,7.69098 0,1.59832 0.42742,3.1702 0.94982,3.49306 1.43096,0.88438 2.80107,-2.37472 4.07591,-9.69535 1.31581,-7.55597 1.13716,-8.07644 -5.4019,-15.73715 -2.43201,-2.84917 -5.76356,-7.73545 -7.40344,-10.8584 -3.09504,-5.89411 -6.60162,-19.5179 -6.03106,-23.43188 0.29407,-2.0173 1.02332,-1.58464 7.15574,4.24554 4.99137,4.74535 7.67535,8.30984 9.97697,13.25 1.73177,3.71704 3.49276,6.75825 3.91331,6.75825 0.42056,0 0.76465,-3.79594 0.76465,-8.43543 v -8.43542 l -6.50135,-5.74334 c -3.57574,-3.15884 -8.05027,-8.0254 -9.9434,-10.81458 -3.47282,-5.11657 -7.55525,-15.71878 -7.55525,-19.62125 v -2.1131 l 3.75,2.24898 c 7.33151,4.39692 12.40212,9.21367 15.55438,14.77565 2.68725,4.7415 3.2479,5.26951 3.52426,3.31909 0.18076,-1.27567 -0.1847,-5.36287 -0.81213,-9.08267 l -1.14077,-6.76327 -7.83146,-5.06213 c -4.47749,-2.89417 -9.51995,-7.19823 -11.77407,-10.0499 -3.77217,-4.77216 -9.05458,-15.7716 -8.05448,-16.7717 0.71862,-0.71862 7.67787,2.34399 12.99918,5.72065 2.5932,1.64553 6.33969,5.25346 8.32554,8.01762 3.57507,4.97622 3.62892,5.00612 5.4657,3.03457 1.18851,-1.27572 2.23909,-4.75228 2.92386,-9.67556 0.9941,-7.14731 6.16957,-21.87369 8.10848,-23.072 1.40608,-0.86901 3.12801,6.46295 3.67858,15.66337 0.63282,10.57494 -0.99524,16.21901 -7.36025,25.51606 -2.4269,3.54485 -4.14758,6.8739 -3.82374,7.39789 0.32384,0.52399 0.89888,3.66506 1.27786,6.98015 0.37898,3.31509 1.13287,6.0456 1.67532,6.06779 0.54244,0.0222 1.89244,-2.87174 3,-6.43094 2.33473,-7.50283 10.54463,-22.74718 12.01374,-22.30743 0.55761,0.16691 1.12673,4.85777 1.28647,10.6035 0.36242,13.03546 -1.72223,19.97606 -8.53616,28.42024 -2.61267,3.23776 -5.27371,6.61276 -5.9134,7.5 -1.58367,2.19648 -2.18697,16.29731 -0.71901,16.80508 0.61485,0.21267 2.13982,-2.13115 3.38882,-5.20849 2.35133,-5.79331 14.40702,-22.48343 16.24034,-22.48343 1.3398,0 0.24889,13.53569 -1.67347,20.76399 -2.00281,7.53081 -5.43417,12.83621 -12.99192,20.08749 -3.64096,3.49331 -6.98978,7.09331 -7.44182,8 -1.17563,2.35801 -3.568,16.05371 -2.91784,16.70387 0.29965,0.29964 2.01138,-1.84023 3.80386,-4.75527 1.79248,-2.91505 7.35745,-9.30026 12.36659,-14.18936 10.23926,-9.99388 11.05983,-9.83149 8.1308,1.60898 -3.65892,14.29132 -11.49568,24.9181 -23.43964,31.78455 -6.07422,3.49199 -6.08338,3.5043 -8.53353,11.46107 -1.34903,4.38093 -2.22812,8.18999 -1.95353,8.46458 0.27459,0.27459 2.31664,-1.62691 4.53789,-4.22555 4.10199,-4.79892 23.49793,-18.4053 24.62713,-17.2761 0.33945,0.33945 -0.21155,2.96945 -1.22444,5.84446 -6.11713,17.36305 -13.95865,25.43399 -30.83985,31.74209 -5.73353,2.14249 -5.85218,2.26811 -9.95422,10.5392 -2.28334,4.60398 -3.85602,8.66639 -3.49484,9.02757 0.36118,0.36118 3.04059,-1.45524 5.95423,-4.03649 5.34158,-4.7322 27.01579,-16.15005 27.60449,-14.54189 0.48834,1.33404 -4.67394,11.02357 -8.85652,16.62356 -4.71363,6.31102 -14.33785,12.88621 -21.82816,14.91284 -3.09225,0.83666 -7.24677,1.95672 -9.23227,2.489 -2.82223,0.75661 -4.86962,2.61234 -9.38227,8.50401 -3.17475,4.14491 -5.53026,7.7782 -5.23448,8.07399 0.29578,0.29578 2.2678,-0.54858 4.38227,-1.87636 7.10474,-4.46142 31.46407,-12.94397 32.93813,-11.46991 1.53552,1.53552 -10.93217,15.58331 -18.30498,20.62487 -5.15318,3.52377 -14.14862,6.16871 -23.21501,6.82593 l -8.42633,0.61083 -7.57367,6.67866 c -4.16551,3.67325 -8.19126,7.42582 -8.94611,8.33902 -1.65675,2.00432 -4.12755,2.18469 -4.12755,0.30132 z m -278.9398,-82.06841 c -0.88679,-1.06852 -1.15244,-16.34384 -1.05645,-60.75 0.0705,-32.6274 0.0985,-59.88504 0.0622,-60.57254 -0.0496,-0.93925 -3.65604,-1.25 -14.50697,-1.25 -8.04305,0 -14.70113,-0.42094 -15.02818,-0.95011 -0.32296,-0.52256 0.88799,-2.25512 2.69099,-3.85014 1.80299,-1.59503 7.52526,-6.67998 12.71613,-11.2999 5.19088,-4.61992 13.17269,-11.67385 17.73736,-15.6754 4.81376,-4.21992 8.57016,-8.3543 8.94407,-9.84407 0.35456,-1.41269 0.34583,-12.62765 -0.0194,-24.92213 -0.61906,-20.83917 -0.54287,-22.41845 1.12448,-23.31079 1.03346,-0.5531 7.16845,-0.72485 14.53202,-0.40684 l 12.74351,0.55035 v 12.35452 c 0,8.19401 0.36438,12.35451 1.08202,12.35451 0.59511,0 5.43261,-3.84951 10.75,-8.55447 19.09835,-16.89871 52.36649,-45.96411 53.65945,-46.8807 0.95731,-0.67864 4.52954,1.9273 13.02263,9.5 6.43691,5.73934 19.19201,16.86428 28.34468,24.72208 22.85467,19.62133 29.72002,25.56704 51.64122,44.7237 10.45,9.13212 24.75571,21.58597 31.79047,27.67521 7.03476,6.08924 12.62281,11.57599 12.41789,12.19277 -0.24697,0.74335 -5.31749,1.2147 -15.04047,1.39814 l -14.66789,0.27673 -0.0153,7.22327 c -0.008,3.9728 -0.38199,7.80117 -0.83016,8.50749 -0.44817,0.70632 -5.72878,2.57796 -11.73469,4.15919 -42.35545,11.15134 -78.21456,28.64807 -111.64889,54.47682 -12.45407,9.62105 -41.81346,37.32246 -48.57276,45.82977 -2.09336,2.63471 -2.56253,2.75 -11.19157,2.75 -5.00895,0 -9.00661,-0.42082 -9.00661,-0.94809 0,-3.14451 29.64034,-34.1363 44.47479,-46.50261 24.35279,-20.301 42.04551,-31.74349 72.72026,-47.03071 22.18734,-11.05738 28.39029,-13.43643 63.80495,-24.47148 5.43879,-1.69471 5.5,-1.75737 5.5,-5.63044 v -3.91667 l -4.9502,0.26255 c -6.06109,0.32147 -21.55931,4.167 -35.31475,8.76254 -36.47868,12.18711 -75.93203,34.65769 -107.23505,61.07551 -12.20067,10.29661 -33.95363,32.90413 -45.36716,47.1494 -5.39819,6.7375 -10.39383,12.25 -11.10142,12.25 -0.70759,0 -1.81964,-0.64236 -2.47122,-1.42746 z m 58.9398,-88.41599 c 0,-0.4639 -0.9,-3.45935 -2,-6.65655 -1.1,-3.19721 -2,-6.41081 -2,-7.14135 0,-0.73053 2.22437,-3.02259 4.94305,-5.09345 2.71867,-2.07086 4.96867,-4.30799 5,-4.97139 0.0382,-0.80893 -2.30394,-1.30296 -7.11126,-1.5 l -7.1682,-0.29381 -2.14629,-6.43817 c -1.18046,-3.54099 -2.6048,-6.591 -3.16518,-6.77779 -0.56039,-0.1868 -1.56684,1.58538 -2.23655,3.93816 -2.882,10.12487 -2.50088,9.7778 -10.73689,9.7778 -4.05828,0 -7.37868,0.39534 -7.37868,0.87852 0,0.48319 2.51046,3.02329 5.5788,5.64465 3.65378,3.12153 5.41148,5.32007 5.09388,6.37148 -0.26671,0.88294 -1.1583,3.74341 -1.98131,6.35659 -0.82301,2.61318 -1.15261,4.9637 -0.73245,5.22337 0.42016,0.25968 2.96235,-1.09088 5.64931,-3.00124 2.68695,-1.91035 5.62912,-3.47337 6.53816,-3.47337 0.90903,0 4.04836,1.8 6.97628,4 5.34693,4.01761 6.87733,4.72002 6.87733,3.15655 z m 102.71966,-51.36291 c 2.43883,-2.29117 2.36183,-2.29682 9.56115,0.70216 1.58236,0.65916 1.71214,0.31067 1.16453,-3.12699 -0.52645,-3.30483 -0.23939,-4.22222 1.96918,-6.29313 3.37387,-3.16356 3.26159,-3.88378 -0.66452,-4.26232 -2.58705,-0.24944 -3.65797,-1.07775 -5.25,-4.06066 -1.1,-2.06101 -2.30044,-3.74851 -2.66765,-3.75 -0.3672,-0.001 -1.4922,1.6848 -2.5,3.7473 -1.54699,3.16599 -2.4331,3.82787 -5.68983,4.25 l -3.85747,0.5 3.1863,3.32338 c 1.91533,1.99773 2.95371,3.9295 2.60321,4.8429 -1.27592,3.32499 -1.74973,6.33372 -0.99742,6.33372 0.43667,0 1.85081,-0.99286 3.14252,-2.20636 z m -64.17533,-4.29364 c 4.21622,-3.025 8.08888,-5.5 8.60592,-5.5 0.51704,0 4.27442,2.25 8.34975,5 4.07532,2.75 7.82543,5 8.33358,5 0.50814,0 -0.13556,-3.7125 -1.43046,-8.25 -1.29489,-4.5375 -2.36533,-9.20721 -2.37874,-10.37713 -0.0171,-1.49406 2.05895,-3.64718 6.97562,-7.2345 3.85,-2.80905 7,-5.56435 7,-6.12287 0,-0.61514 -3.6971,-1.0155 -9.37756,-1.0155 -6.33821,0 -9.67969,-0.40514 -10.30975,-1.25 -0.5127,-0.6875 -2.20822,-5.075 -3.76781,-9.75 -1.55959,-4.675 -3.16988,-8.87718 -3.57842,-9.33817 -0.40853,-0.46099 -2.19106,3.50903 -3.96117,8.82227 -1.7701,5.31324 -3.73293,9.83952 -4.36183,10.05841 -0.62891,0.21889 -5.41846,0.60597 -10.64346,0.86019 -11.13194,0.54161 -10,0.36502 -10,1.56004 0,0.5295 2.5875,2.76102 5.75,4.95893 3.1625,2.19791 6.83683,4.86018 8.16519,5.91617 l 2.41519,1.91997 -2.66519,9.60719 c -1.46586,5.28395 -2.66519,9.83845 -2.66519,10.12109 0,1.3699 2.5211,0.0528 9.54433,-4.98609 z m -42.54433,143.28092 c 0,-0.67049 6.1875,-7.31958 13.75,-14.77575 35.47663,-34.97785 83.51202,-62.93383 131.45579,-76.50559 5.33818,-1.51112 10.40068,-2.48083 11.25,-2.15492 1.97152,0.75654 2.21902,12.87403 0.29421,14.40409 -0.6875,0.5465 -4.84742,1.78175 -9.24427,2.745 -12.4195,2.72082 -28.9104,8.77443 -44.84199,16.46094 -29.54794,14.25599 -52.62362,30.19873 -77.86384,53.79531 l -7.75501,7.25 h -8.52245 c -6.03598,0 -8.52244,-0.35567 -8.52244,-1.21908 z m 37.5,0.21908 c -0.9446,-1.52839 -0.16981,-2.33995 10.79922,-11.31175 19.37434,-15.84668 39.78935,-29.27735 59.20078,-38.94711 14.9352,-7.43994 46.0817,-18.49937 48.97389,-17.38953 2.00526,0.76949 2.16372,11.87433 0.19278,13.51006 -0.73333,0.60861 -5.12083,2.20717 -9.75,3.55235 -24.83374,7.21638 -58.18979,24.99104 -82.17777,43.7906 l -9.94679,7.79538 h -8.33704 c -4.58537,0 -8.61516,-0.45 -8.95507,-1 z m 39.5,-0.005 c 0,-3.00585 30.41213,-21.96487 49,-30.54677 15.21817,-7.02613 29.66629,-11.77026 30.75291,-10.09791 0.92496,1.42354 1.638,35.95611 0.81052,39.25308 l -0.60154,2.39671 h -39.98095 c -26.12275,0 -39.98094,-0.34839 -39.98094,-1.00511 z M -666.81829,397.91425 c 0.38572,-12.0114 0.58467,-13.02514 3.92489,-20 3.66476,-7.65255 10.95397,-16.84727 13.35585,-16.84727 1.52644,0 1.42991,1.08608 -1.24434,14 -1.85056,8.93635 -4.30311,15.45164 -7.99586,21.24136 -1.49392,2.34225 -4.00561,6.50864 -5.58154,9.25864 l -2.86533,5 z m 492.03239,1.55397 c -2.8536,-4.45412 -6.16381,-10.97904 -7.35602,-14.49982 -2.67972,-7.91363 -5.22809,-23.02894 -4.07669,-24.18034 1.20855,-1.20855 9.73394,8.82336 12.55951,14.77892 3.20011,6.74495 4.75561,15.45344 4.37615,24.49982 l -0.31458,7.49983 z m -459.90062,-55.7181 c -15.32016,-9.58271 -20.41101,-12.96844 -20.41101,-13.57457 0,-0.37045 1.9125,-3.57614 4.25,-7.12374 3.18406,-4.83242 5.05677,-6.67651 7.4667,-7.35261 4.06505,-1.14044 8.41267,0.54439 11.80354,4.57421 3.07367,3.65285 3.19401,7.99055 0.36795,13.26336 l -2.11181,3.94017 2.86181,2.29005 c 1.57399,1.25953 3.2306,2.29229 3.68136,2.29502 1.47894,0.009 0.21782,4.47972 -1.31955,4.6779 -0.825,0.10635 -3.79005,-1.23906 -6.58899,-2.98979 z m -2.18428,-11.43314 c 2.96571,-3.37735 3.0815,-6.03268 0.38082,-8.73335 -3.22819,-3.2282 -5.93215,-3.19075 -8.53497,0.11821 -2.86054,3.63658 -2.58489,5.50115 1.19052,8.05299 3.99451,2.69992 5.01413,2.78223 6.96363,0.56215 z m 416.19783,-6.58598 c -0.28196,-0.73478 1.07603,-5.78092 3.01775,-11.21363 1.94173,-5.43271 3.16319,-10.24489 2.71436,-10.69372 -0.44883,-0.44883 -3.81274,1.49735 -7.47535,4.32485 -6.65183,5.13514 -9.68135,5.82353 -9.68129,2.19986 3e-5,-1.87162 2.24182,-3.85381 15.80677,-13.97628 11.97426,-8.93547 13.61511,-7.32626 8.1932,8.03518 -1.65,4.6748 -3,8.76066 -3,9.07968 0,1.56603 2.91598,0.15543 8.10331,-3.91996 6.42961,-5.05139 7.38436,-5.32581 8.87017,-2.54955 0.88172,1.64751 0.47839,2.38528 -2.59676,4.75 -2.00233,1.53975 -5.04373,3.96536 -6.75866,5.39024 -4.90868,4.07846 -13.96219,9.90931 -15.3861,9.90931 -0.7121,0 -1.52543,-0.60119 -1.8074,-1.33598 z m -401.41736,-6.73661 c -12.62133,-10.12929 -16.0072,-13.27063 -16.0072,-14.85112 0,-2.45957 8.61225,-11.76216 11.57853,-12.50665 5.72685,-1.43734 13.42147,3.71885 13.42147,8.99379 0,3.11964 2.55263,5.43657 5.98964,5.43657 4.73258,0 6.13422,0.90004 4.9238,3.16173 -0.89729,1.67661 -1.94861,1.92159 -7.23169,1.68517 -9.37883,-0.41972 -11.14825,1.74658 -5.63511,6.89907 2.0619,1.92701 2.83538,3.3979 2.39301,4.55068 -1.02096,2.6606 -2.6395,2.08246 -9.43245,-3.36924 z m 1.9247,-11.83178 c 1.13745,-1.59741 2.0681,-3.4809 2.0681,-4.18555 0,-2.04435 -4.15994,-5.91008 -6.35987,-5.91008 -2.24858,0 -6.64013,3.68428 -6.64013,5.57072 0,1.34134 6.52832,7.42928 7.9667,7.42928 0.49341,0 1.82775,-1.30697 2.9652,-2.90437 z m 374.95045,-10.97798 c -4.01722,-4.01722 -4.1167,-4.27817 -3.67262,-9.6332 1.01718,-12.26587 14.06696,-21.01257 23.823,-15.96752 3.87125,2.0019 5.96812,6.28578 5.96353,12.18341 -0.007,9.00523 -7.08429,16.3107 -16.56269,17.09672 -5.25694,0.43595 -5.54797,0.32384 -9.55122,-3.67941 z m 16.53623,-5.60291 c 8.67785,-8.67785 3.18864,-19.53281 -7.26264,-14.36193 -7.06172,3.49386 -9.8744,10.3928 -6.16152,15.11297 3.27293,4.16085 8.82277,3.85036 13.42416,-0.75104 z m -374.98932,6.6408 c -2.23891,-1.04348 -5.50141,-3.63289 -7.25,-5.75424 -2.80803,-3.40662 -3.17926,-4.57362 -3.17926,-9.99429 0,-7.10192 2.14705,-10.73486 7.72057,-13.06362 5.3963,-2.25472 9.8169,-0.84342 15.81676,5.04957 4.17947,4.10503 5.32934,5.9626 5.86066,9.46766 1.67363,11.04068 -8.88248,18.9958 -18.96873,14.29492 z m 11.37007,-6.18322 c 4.31035,-4.0157 3.56304,-9.59756 -1.95432,-14.59736 -4.09369,-3.70967 -6.3244,-4.45241 -9.76745,-3.25215 -3.68031,1.28296 -5.07756,3.50889 -5.07756,8.08894 0,4.00049 2.11317,7.2765 6.36671,9.87019 4.04884,2.46886 7.7062,2.43043 10.43262,-0.10962 z m 330.5856,-10.41158 c -0.72926,-1.90042 -0.36008,-2.44827 10.00496,-14.84712 7.63269,-9.13038 9.15294,-10.49347 10.75,-9.63875 1.02306,0.54752 1.85935,1.54216 1.85843,2.21031 -0.003,1.91124 -18.9214,23.71482 -20.57712,23.71482 -0.81619,0 -1.73251,-0.64767 -2.03627,-1.43926 z m -315.34062,-1.47795 c -0.60011,-1.1213 -4.71418,-6.58653 -9.14239,-12.14495 -4.42821,-5.55842 -7.83088,-10.68059 -7.5615,-11.3826 0.76869,-2.00316 12.64798,-9.55566 15.02353,-9.5515 3.53948,0.006 8.662,3.81414 10.25292,7.62175 2.05803,4.92553 0.96898,8.79919 -3.71205,13.20356 -2.14584,2.01902 -3.90228,4.09195 -3.90318,4.6065 -9e-4,0.51455 0.9958,1.99727 2.21489,3.29494 1.69897,1.80847 1.97417,2.74363 1.17856,4.00493 -1.56965,2.48841 -3.13793,2.61362 -4.35078,0.34737 z m 1.88311,-16.71765 c 2.4767,-3.14862 2.60421,-5.16112 0.51587,-8.14264 -2.00353,-2.86044 -6.11224,-2.88213 -9.12884,-0.0482 -2.91402,2.73758 -2.8938,3.37734 0.23644,7.4813 3.07238,4.0281 5.59787,4.24202 8.37653,0.70953 z m 299.80715,6.88486 c -1.45688,-1.61834 -1.05476,-2.46283 5.34501,-11.22502 3.80623,-5.21126 6.92042,-10.09649 6.92042,-10.85608 0,-0.75958 -1.12385,-2.26507 -2.49743,-3.34554 -2.02688,-1.59434 -2.30287,-2.328 -1.46481,-3.89392 0.56793,-1.06119 1.52404,-1.92944 2.12468,-1.92944 0.60064,0 4.63194,2.5875 8.95846,5.75 5.76423,4.21341 7.80128,6.28173 7.62274,7.73978 -0.31959,2.61 -3.40074,3.13052 -5.7808,0.97659 -1.0386,-0.93991 -2.48602,-1.47959 -3.2165,-1.19928 -0.73049,0.28032 -4.39408,4.83489 -8.14133,10.12129 -3.74725,5.28639 -7.1466,9.61162 -7.55411,9.61162 -0.40751,0 -1.44986,-0.7875 -2.31633,-1.75 z m -286.99494,-18.1054 c -4.2568,-7.07048 -7.73963,-13.0989 -7.73963,-13.3965 0,-0.75895 14.55053,-9.7481 15.77903,-9.7481 1.27638,0 2.41727,2.87335 1.64015,4.13076 -0.32302,0.52265 -2.37097,2.07626 -4.55101,3.45246 -4.9771,3.1419 -5.72179,5.00761 -3.06088,7.66852 l 2.08519,2.08518 4.03232,-2.66846 c 4.78717,-3.168 5.68313,-3.26955 7.00783,-0.79433 1.07863,2.01543 0.19599,3.11585 -5.18263,6.46143 -3.20373,1.99277 -3.43653,3.59505 -0.96568,6.64642 l 1.78433,2.20355 5.17341,-3.21597 c 5.33495,-3.31639 8.25794,-3.39815 8.25794,-0.23101 0,1.85644 -12.38083,10.26145 -15.11542,10.26145 -0.77293,0 -4.88816,-5.78493 -9.14495,-12.8554 z m 275.95472,11.38715 c -1.31178,-0.96886 -1.72204,-2.38011 -1.5,-5.1598 0.29494,-3.6922 0.12028,-3.92633 -4.98765,-6.68571 -4.98787,-2.69452 -5.43303,-2.76797 -7.71482,-1.27288 -1.33184,0.87265 -3.08579,1.58664 -3.89768,1.58664 -3.48872,0 -2.18937,-2.24787 4.44505,-7.68994 18.64293,-15.29237 18.85498,-15.43703 20.9691,-14.30559 2.53308,1.35566 2.51706,3.95609 -0.0985,15.99553 -1.13513,5.225 -2.42541,11.22369 -2.8673,13.33043 -1.01865,4.85657 -2.07677,5.87895 -4.3482,4.20132 z m 2.25306,-19.28175 c 1.22898,-4.42534 1.34715,-7.25341 0.30259,-7.24133 -0.4125,0.005 -2.46129,1.63055 -4.55286,3.61285 -3.62785,3.4383 -3.72426,3.69103 -2.09502,5.49133 2.78304,3.07522 5.16841,2.37492 6.34529,-1.86285 z m -250.29088,6 c -3.00961,-5.93369 -10.65653,-24.21144 -10.65653,-25.47137 0,-1.3999 11.27029,-6.77897 14.20294,-6.77876 6.24082,4.6e-4 11.43112,7.28622 10.34592,14.52286 -0.60813,4.05532 -0.45927,4.38017 3.41239,7.44658 2.22654,1.76345 3.79456,3.61677 3.48448,4.11848 -1.03229,1.6703 -4.71798,0.94194 -8.03462,-1.58779 -3.76687,-2.87313 -6.60035,-3.18183 -8.47477,-0.9233 -1.09077,1.31429 -1.00402,2.14216 0.52124,4.9744 1.49613,2.77814 1.59891,3.6759 0.56366,4.9233 -1.89656,2.28522 -3.80559,1.84952 -5.36471,-1.2244 z m 5.09347,-15.23904 c 3.87974,-2.36553 4.4365,-6.82446 1.25,-10.01096 -2.41309,-2.41309 -3.21043,-2.45967 -7.15829,-0.41815 -2.69541,1.39385 -2.98491,1.95218 -2.4358,4.69773 0.66287,3.31432 3.15783,7.7229 4.36714,7.71668 0.39982,-0.002 2.18945,-0.89544 3.97695,-1.9853 z m 211.25698,11.08327 c -4.12116,-2.01517 -7.6341,-4.39649 -7.80652,-5.29182 -0.17243,-0.89533 1.22069,-4.70465 3.09581,-8.46515 1.87512,-3.76049 4.17646,-8.86226 5.11409,-11.33726 3.28915,-8.68211 3.32291,-8.69522 12.50385,-4.85824 8.02668,3.35458 8.83856,4.12083 7.16577,6.76306 -0.74392,1.17505 -1.82879,1.02355 -6.63276,-0.92624 l -5.74338,-2.33107 -1.85192,2.28703 c -2.81901,3.48133 -2.26753,4.99408 2.60666,7.15016 5.24474,2.32 6.27923,3.60606 4.40683,5.47846 -1.16165,1.16165 -2.01664,1.04347 -5.59377,-0.77317 -4.10127,-2.08283 -4.28068,-2.09179 -6.24709,-0.31221 -3.71216,3.35946 -2.6444,6.09183 3.47545,8.89359 5.41716,2.48006 6.70645,4.4171 4.25,6.38527 -0.88016,0.7052 -3.46701,-0.0825 -8.74302,-2.66241 z m -188.35883,-16.34423 c -1.95717,-5.0875 -4.03543,-10.53459 -4.61835,-12.10464 -0.92467,-2.49049 -1.40874,-2.76247 -3.79484,-2.13211 -4.93079,1.30261 -5.73496,1.1052 -5.73496,-1.40787 0,-2.10162 1.12778,-2.81978 9.21729,-5.86953 9.55166,-3.60098 12.28271,-3.67764 12.28271,-0.34479 0,1.34627 -1.08837,2.31303 -3.5,3.10894 -1.925,0.63531 -3.5,1.61411 -3.5,2.17513 0,0.56101 1.8377,6.21375 4.08378,12.56165 3.2584,9.20893 3.8142,11.71251 2.75,12.38711 -2.76183,1.75072 -3.72043,0.6336 -7.18563,-8.37389 z m 169.82105,8.20018 c -0.35685,-0.5774 -1.17091,-3.1649 -1.80901,-5.75 -1.0609,-4.29794 -1.41694,-4.70018 -4.16019,-4.70018 -2.52169,0 -3.15255,0.51818 -3.9568,3.25 -1.01613,3.45153 -4.12252,4.50986 -5.17638,1.76355 -0.31372,-0.81754 1.6129,-7.82596 4.28139,-15.57426 l 4.85179,-14.08781 3.3852,0.53333 c 5.55314,0.87488 12.48381,4.83921 13.98319,7.99835 1.93527,4.07758 0.006,9.88188 -4.97284,14.96105 -2.21092,2.25548 -3.73796,4.68825 -3.50125,5.57793 1.69314,6.36373 1.66123,7.07786 -0.31624,7.07786 -1.07801,0 -2.252,-0.47242 -2.60886,-1.04982 z m 4.07625,-17.40473 c 2.97591,-2.97591 3.12986,-5.87013 0.45455,-8.54545 -3.37539,-3.37539 -6.53709,-2.61421 -8.39142,2.02023 -2.15131,5.37666 -2.03043,6.87465 0.64142,7.94861 3.53917,1.42257 4.67016,1.20191 7.29545,-1.42339 z m -153.25065,12.20455 c -1.46731,-1.93051 -8.45336,-28.68444 -7.77623,-29.78005 0.3297,-0.53347 1.61818,-0.96995 2.86327,-0.96995 2.08661,0 2.55798,1.18519 6.02178,15.14105 3.03258,12.21849 3.50108,15.30389 2.42717,15.98469 -1.81302,1.14933 -2.42637,1.08416 -3.53599,-0.37574 z m 11.91773,-3.11447 c -1.64029,-2.21118 -6.44041,-29.87666 -5.30548,-30.57809 2.34073,-1.44665 16.32246,-3.22793 17.34112,-2.20927 1.86129,1.8613 -0.0261,3.8607 -4.28773,4.54216 -5.56642,0.89011 -7.96044,2.26552 -7.96044,4.57342 0,3.44711 2.52575,4.93537 6.72235,3.96103 6.20595,-1.44085 7.45687,-1.20728 7.0972,1.32522 -0.24759,1.7433 -1.31821,2.49074 -4.75411,3.31903 -5.45459,1.31492 -6.9175,3.26549 -5.22879,6.9718 1.08191,2.37455 1.61223,2.61468 4.44589,2.01318 8.63235,-1.83239 9.66898,-1.84391 10.33252,-0.11476 0.99483,2.59249 -0.67658,3.56825 -9.46968,5.52834 -5.95055,1.32645 -8.3133,1.50312 -8.93285,0.66794 z m 105.43002,0.29646 c -10.88871,-3.11137 -12.9325,-18.87734 -3.65039,-28.15945 3.33583,-3.33583 4.33921,-3.77254 8.66768,-3.77254 6.29024,0 12.91493,4.3386 11.65159,7.63079 -0.89972,2.34463 -3.31478,2.27495 -5.75581,-0.16608 -6.18374,-6.18374 -14.55562,-0.56834 -14.55562,9.76312 0,7.32948 4.53494,11.04008 10.65087,8.7148 2.30113,-0.87488 3.01379,-0.75413 4.0694,0.6895 1.70441,2.33091 1.6152,3.12606 -0.47027,4.19183 -2.90526,1.48473 -7.58017,1.97305 -10.60745,1.10803 z m -80.56359,-5.19673 c -2.7996,-1.42842 -3.3963,-2.6825 -2.18611,-4.59461 0.70844,-1.11935 1.47343,-1.13766 4.33278,-0.1037 6.02257,2.17779 11.66626,-0.81413 9.12754,-4.83883 -0.53081,-0.84152 -3.41051,-2.32722 -6.39932,-3.30156 -6.40119,-2.08677 -8.95385,-4.81916 -8.95385,-9.58427 0,-5.27696 4.48123,-9.31229 10.34129,-9.31229 5.78248,0 7.65871,0.76115 7.65871,3.10699 0,1.62267 -0.76798,1.89301 -5.37756,1.89301 -6.39052,0 -8.53706,1.69722 -6.84456,5.41186 0.7712,1.69258 2.46499,2.68682 6.03726,3.54379 6.4634,1.55055 9.18486,4.11324 9.18486,8.64905 0,1.93973 -0.46334,4.39254 -1.02965,5.45069 -2.31579,4.32709 -10.78094,6.28732 -15.89139,3.67987 z m 46.62989,-1.35975 c -0.38987,-0.38986 -0.70885,-1.69997 -0.70885,-2.91134 0,-1.76824 -0.73937,-2.3247 -3.75,-2.82232 -2.0625,-0.34091 -4.9875,-0.62479 -6.5,-0.63085 -3.65366,-0.0146 -3.64459,-2.98767 0.0275,-9.011 8.33341,-13.66933 9.38094,-15 11.80827,-15 1.32782,0 2.41423,0.32414 2.41423,0.72031 0,0.39618 -2.31351,4.49287 -5.14113,9.10377 -4.11378,6.7082 -4.86314,8.56368 -3.75,9.28541 2.33533,1.51416 5.3664,0.56415 5.70116,-1.78687 0.6166,-4.33041 5.18997,-5.58047 5.18997,-1.41859 0,0.9823 0.9,2.60048 2,3.59597 2.53682,2.29579 2.56127,4.54046 0.0566,5.19545 -1.18767,0.31058 -2.06263,1.538 -2.25,3.15638 -0.30096,2.5995 -3.45867,4.16276 -5.09774,2.52368 z"
         id="path101253"
         sodipodi:insensitive="true" />
    </g>
  </g>
</svg>
